<?xml version="1.0" encoding="utf-8" standalone="no"?>
<!DOCTYPE svg PUBLIC "-//W3C//DTD SVG 1.1//EN"
  "http://www.w3.org/Graphics/SVG/1.1/DTD/svg11.dtd">
<svg xmlns:xlink="http://www.w3.org/1999/xlink" width="1248.723906pt" height="348.633281pt" viewBox="0 0 1248.723906 348.633281" xmlns="http://www.w3.org/2000/svg" version="1.1">
 <metadata>
  <rdf:RDF xmlns:dc="http://purl.org/dc/elements/1.1/" xmlns:cc="http://creativecommons.org/ns#" xmlns:rdf="http://www.w3.org/1999/02/22-rdf-syntax-ns#">
   <cc:Work>
    <dc:type rdf:resource="http://purl.org/dc/dcmitype/StillImage"/>
    <dc:date>2026-02-12T06:22:25.448597</dc:date>
    <dc:format>image/svg+xml</dc:format>
    <dc:creator>
     <cc:Agent>
      <dc:title>Matplotlib v3.9.4, https://matplotlib.org/</dc:title>
     </cc:Agent>
    </dc:creator>
   </cc:Work>
  </rdf:RDF>
 </metadata>
 <defs>
  <style type="text/css">*{stroke-linejoin: round; stroke-linecap: butt}</style>
 </defs>
 <g id="figure_1">
  <g id="patch_1">
   <path d="M -0 348.633281 
L 1248.723906 348.633281 
L 1248.723906 0 
L -0 0 
z
" style="fill: #ffffff"/>
  </g>
  <g id="axes_1">
   <g id="patch_2">
    <path d="M 62.400156 321.739375 
L 1241.523906 321.739375 
L 1241.523906 21.935625 
L 62.400156 21.935625 
z
" style="fill: #ffffff"/>
   </g>
   <g id="matplotlib.axis_1">
    <g id="xtick_1">
     <g id="line2d_1">
      <path d="M 62.400156 321.739375 
L 62.400156 21.935625 
" clip-path="url(#p32db65c3d4)" style="fill: none; stroke: #cccccc; stroke-linecap: round"/>
     </g>
     <g id="text_1">
      <!-- Jan -->
      <g style="fill: #262626" transform="translate(53.533125 339.112969) scale(0.11 -0.11)">
       <defs>
        <path id="ArialMT-4a" d="M 184 1300 
L 731 1375 
Q 753 850 928 656 
Q 1103 463 1413 463 
Q 1641 463 1806 567 
Q 1972 672 2034 851 
Q 2097 1031 2097 1425 
L 2097 4581 
L 2703 4581 
L 2703 1459 
Q 2703 884 2564 568 
Q 2425 253 2123 87 
Q 1822 -78 1416 -78 
Q 813 -78 492 269 
Q 172 616 184 1300 
z
" transform="scale(0.015625)"/>
        <path id="ArialMT-61" d="M 2588 409 
Q 2275 144 1986 34 
Q 1697 -75 1366 -75 
Q 819 -75 525 192 
Q 231 459 231 875 
Q 231 1119 342 1320 
Q 453 1522 633 1644 
Q 813 1766 1038 1828 
Q 1203 1872 1538 1913 
Q 2219 1994 2541 2106 
Q 2544 2222 2544 2253 
Q 2544 2597 2384 2738 
Q 2169 2928 1744 2928 
Q 1347 2928 1158 2789 
Q 969 2650 878 2297 
L 328 2372 
Q 403 2725 575 2942 
Q 747 3159 1072 3276 
Q 1397 3394 1825 3394 
Q 2250 3394 2515 3294 
Q 2781 3194 2906 3042 
Q 3031 2891 3081 2659 
Q 3109 2516 3109 2141 
L 3109 1391 
Q 3109 606 3145 398 
Q 3181 191 3288 0 
L 2700 0 
Q 2613 175 2588 409 
z
M 2541 1666 
Q 2234 1541 1622 1453 
Q 1275 1403 1131 1340 
Q 988 1278 909 1158 
Q 831 1038 831 891 
Q 831 666 1001 516 
Q 1172 366 1500 366 
Q 1825 366 2078 508 
Q 2331 650 2450 897 
Q 2541 1088 2541 1459 
L 2541 1666 
z
" transform="scale(0.015625)"/>
        <path id="ArialMT-6e" d="M 422 0 
L 422 3319 
L 928 3319 
L 928 2847 
Q 1294 3394 1984 3394 
Q 2284 3394 2536 3286 
Q 2788 3178 2913 3003 
Q 3038 2828 3088 2588 
Q 3119 2431 3119 2041 
L 3119 0 
L 2556 0 
L 2556 2019 
Q 2556 2363 2490 2533 
Q 2425 2703 2258 2804 
Q 2091 2906 1866 2906 
Q 1506 2906 1245 2678 
Q 984 2450 984 1813 
L 984 0 
L 422 0 
z
" transform="scale(0.015625)"/>
       </defs>
       <use xlink:href="#ArialMT-4a"/>
       <use xlink:href="#ArialMT-61" x="50"/>
       <use xlink:href="#ArialMT-6e" x="105.615234"/>
      </g>
     </g>
    </g>
    <g id="xtick_2">
     <g id="line2d_2">
      <path d="M 162.820036 321.739375 
L 162.820036 21.935625 
" clip-path="url(#p32db65c3d4)" style="fill: none; stroke: #cccccc; stroke-linecap: round"/>
     </g>
     <g id="text_2">
      <!-- Feb -->
      <g style="fill: #262626" transform="translate(153.343708 339.112969) scale(0.11 -0.11)">
       <defs>
        <path id="ArialMT-46" d="M 525 0 
L 525 4581 
L 3616 4581 
L 3616 4041 
L 1131 4041 
L 1131 2622 
L 3281 2622 
L 3281 2081 
L 1131 2081 
L 1131 0 
L 525 0 
z
" transform="scale(0.015625)"/>
        <path id="ArialMT-65" d="M 2694 1069 
L 3275 997 
Q 3138 488 2766 206 
Q 2394 -75 1816 -75 
Q 1088 -75 661 373 
Q 234 822 234 1631 
Q 234 2469 665 2931 
Q 1097 3394 1784 3394 
Q 2450 3394 2872 2941 
Q 3294 2488 3294 1666 
Q 3294 1616 3291 1516 
L 816 1516 
Q 847 969 1125 678 
Q 1403 388 1819 388 
Q 2128 388 2347 550 
Q 2566 713 2694 1069 
z
M 847 1978 
L 2700 1978 
Q 2663 2397 2488 2606 
Q 2219 2931 1791 2931 
Q 1403 2931 1139 2672 
Q 875 2413 847 1978 
z
" transform="scale(0.015625)"/>
        <path id="ArialMT-62" d="M 941 0 
L 419 0 
L 419 4581 
L 981 4581 
L 981 2947 
Q 1338 3394 1891 3394 
Q 2197 3394 2470 3270 
Q 2744 3147 2920 2923 
Q 3097 2700 3197 2384 
Q 3297 2069 3297 1709 
Q 3297 856 2875 390 
Q 2453 -75 1863 -75 
Q 1275 -75 941 416 
L 941 0 
z
M 934 1684 
Q 934 1088 1097 822 
Q 1363 388 1816 388 
Q 2184 388 2453 708 
Q 2722 1028 2722 1663 
Q 2722 2313 2464 2622 
Q 2206 2931 1841 2931 
Q 1472 2931 1203 2611 
Q 934 2291 934 1684 
z
" transform="scale(0.015625)"/>
       </defs>
       <use xlink:href="#ArialMT-46"/>
       <use xlink:href="#ArialMT-65" x="61.083984"/>
       <use xlink:href="#ArialMT-62" x="116.699219"/>
      </g>
     </g>
    </g>
    <g id="xtick_3">
     <g id="line2d_3">
      <path d="M 253.521863 321.739375 
L 253.521863 21.935625 
" clip-path="url(#p32db65c3d4)" style="fill: none; stroke: #cccccc; stroke-linecap: round"/>
     </g>
     <g id="text_3">
      <!-- Mar -->
      <g style="fill: #262626" transform="translate(244.050691 339.112969) scale(0.11 -0.11)">
       <defs>
        <path id="ArialMT-4d" d="M 475 0 
L 475 4581 
L 1388 4581 
L 2472 1338 
Q 2622 884 2691 659 
Q 2769 909 2934 1394 
L 4031 4581 
L 4847 4581 
L 4847 0 
L 4263 0 
L 4263 3834 
L 2931 0 
L 2384 0 
L 1059 3900 
L 1059 0 
L 475 0 
z
" transform="scale(0.015625)"/>
        <path id="ArialMT-72" d="M 416 0 
L 416 3319 
L 922 3319 
L 922 2816 
Q 1116 3169 1280 3281 
Q 1444 3394 1641 3394 
Q 1925 3394 2219 3213 
L 2025 2691 
Q 1819 2813 1613 2813 
Q 1428 2813 1281 2702 
Q 1134 2591 1072 2394 
Q 978 2094 978 1738 
L 978 0 
L 416 0 
z
" transform="scale(0.015625)"/>
       </defs>
       <use xlink:href="#ArialMT-4d"/>
       <use xlink:href="#ArialMT-61" x="83.300781"/>
       <use xlink:href="#ArialMT-72" x="138.916016"/>
      </g>
     </g>
    </g>
    <g id="xtick_4">
     <g id="line2d_4">
      <path d="M 353.941743 321.739375 
L 353.941743 21.935625 
" clip-path="url(#p32db65c3d4)" style="fill: none; stroke: #cccccc; stroke-linecap: round"/>
     </g>
     <g id="text_4">
      <!-- Apr -->
      <g style="fill: #262626" transform="translate(345.383227 339.112969) scale(0.11 -0.11)">
       <defs>
        <path id="ArialMT-41" d="M -9 0 
L 1750 4581 
L 2403 4581 
L 4278 0 
L 3588 0 
L 3053 1388 
L 1138 1388 
L 634 0 
L -9 0 
z
M 1313 1881 
L 2866 1881 
L 2388 3150 
Q 2169 3728 2063 4100 
Q 1975 3659 1816 3225 
L 1313 1881 
z
" transform="scale(0.015625)"/>
        <path id="ArialMT-70" d="M 422 -1272 
L 422 3319 
L 934 3319 
L 934 2888 
Q 1116 3141 1344 3267 
Q 1572 3394 1897 3394 
Q 2322 3394 2647 3175 
Q 2972 2956 3137 2557 
Q 3303 2159 3303 1684 
Q 3303 1175 3120 767 
Q 2938 359 2589 142 
Q 2241 -75 1856 -75 
Q 1575 -75 1351 44 
Q 1128 163 984 344 
L 984 -1272 
L 422 -1272 
z
M 931 1641 
Q 931 1000 1190 694 
Q 1450 388 1819 388 
Q 2194 388 2461 705 
Q 2728 1022 2728 1688 
Q 2728 2322 2467 2637 
Q 2206 2953 1844 2953 
Q 1484 2953 1207 2617 
Q 931 2281 931 1641 
z
" transform="scale(0.015625)"/>
       </defs>
       <use xlink:href="#ArialMT-41"/>
       <use xlink:href="#ArialMT-70" x="66.699219"/>
       <use xlink:href="#ArialMT-72" x="122.314453"/>
      </g>
     </g>
    </g>
    <g id="xtick_5">
     <g id="line2d_5">
      <path d="M 451.122272 321.739375 
L 451.122272 21.935625 
" clip-path="url(#p32db65c3d4)" style="fill: none; stroke: #cccccc; stroke-linecap: round"/>
     </g>
     <g id="text_5">
      <!-- May -->
      <g style="fill: #262626" transform="translate(440.732428 339.112969) scale(0.11 -0.11)">
       <defs>
        <path id="ArialMT-79" d="M 397 -1278 
L 334 -750 
Q 519 -800 656 -800 
Q 844 -800 956 -737 
Q 1069 -675 1141 -563 
Q 1194 -478 1313 -144 
Q 1328 -97 1363 -6 
L 103 3319 
L 709 3319 
L 1400 1397 
Q 1534 1031 1641 628 
Q 1738 1016 1872 1384 
L 2581 3319 
L 3144 3319 
L 1881 -56 
Q 1678 -603 1566 -809 
Q 1416 -1088 1222 -1217 
Q 1028 -1347 759 -1347 
Q 597 -1347 397 -1278 
z
" transform="scale(0.015625)"/>
       </defs>
       <use xlink:href="#ArialMT-4d"/>
       <use xlink:href="#ArialMT-61" x="83.300781"/>
       <use xlink:href="#ArialMT-79" x="138.916016"/>
      </g>
     </g>
    </g>
    <g id="xtick_6">
     <g id="line2d_6">
      <path d="M 551.542151 321.739375 
L 551.542151 21.935625 
" clip-path="url(#p32db65c3d4)" style="fill: none; stroke: #cccccc; stroke-linecap: round"/>
     </g>
     <g id="text_6">
      <!-- Jun -->
      <g style="fill: #262626" transform="translate(542.67512 339.112969) scale(0.11 -0.11)">
       <defs>
        <path id="ArialMT-75" d="M 2597 0 
L 2597 488 
Q 2209 -75 1544 -75 
Q 1250 -75 995 37 
Q 741 150 617 320 
Q 494 491 444 738 
Q 409 903 409 1263 
L 409 3319 
L 972 3319 
L 972 1478 
Q 972 1038 1006 884 
Q 1059 663 1231 536 
Q 1403 409 1656 409 
Q 1909 409 2131 539 
Q 2353 669 2445 892 
Q 2538 1116 2538 1541 
L 2538 3319 
L 3100 3319 
L 3100 0 
L 2597 0 
z
" transform="scale(0.015625)"/>
       </defs>
       <use xlink:href="#ArialMT-4a"/>
       <use xlink:href="#ArialMT-75" x="50"/>
       <use xlink:href="#ArialMT-6e" x="105.615234"/>
      </g>
     </g>
    </g>
    <g id="xtick_7">
     <g id="line2d_7">
      <path d="M 648.72268 321.739375 
L 648.72268 21.935625 
" clip-path="url(#p32db65c3d4)" style="fill: none; stroke: #cccccc; stroke-linecap: round"/>
     </g>
     <g id="text_7">
      <!-- Jul -->
      <g style="fill: #262626" transform="translate(641.692133 339.112969) scale(0.11 -0.11)">
       <defs>
        <path id="ArialMT-6c" d="M 409 0 
L 409 4581 
L 972 4581 
L 972 0 
L 409 0 
z
" transform="scale(0.015625)"/>
       </defs>
       <use xlink:href="#ArialMT-4a"/>
       <use xlink:href="#ArialMT-75" x="50"/>
       <use xlink:href="#ArialMT-6c" x="105.615234"/>
      </g>
     </g>
    </g>
    <g id="xtick_8">
     <g id="line2d_8">
      <path d="M 749.14256 321.739375 
L 749.14256 21.935625 
" clip-path="url(#p32db65c3d4)" style="fill: none; stroke: #cccccc; stroke-linecap: round"/>
     </g>
     <g id="text_8">
      <!-- Aug -->
      <g style="fill: #262626" transform="translate(739.356857 339.112969) scale(0.11 -0.11)">
       <defs>
        <path id="ArialMT-67" d="M 319 -275 
L 866 -356 
Q 900 -609 1056 -725 
Q 1266 -881 1628 -881 
Q 2019 -881 2231 -725 
Q 2444 -569 2519 -288 
Q 2563 -116 2559 434 
Q 2191 0 1641 0 
Q 956 0 581 494 
Q 206 988 206 1678 
Q 206 2153 378 2554 
Q 550 2956 876 3175 
Q 1203 3394 1644 3394 
Q 2231 3394 2613 2919 
L 2613 3319 
L 3131 3319 
L 3131 450 
Q 3131 -325 2973 -648 
Q 2816 -972 2473 -1159 
Q 2131 -1347 1631 -1347 
Q 1038 -1347 672 -1080 
Q 306 -813 319 -275 
z
M 784 1719 
Q 784 1066 1043 766 
Q 1303 466 1694 466 
Q 2081 466 2343 764 
Q 2606 1063 2606 1700 
Q 2606 2309 2336 2618 
Q 2066 2928 1684 2928 
Q 1309 2928 1046 2623 
Q 784 2319 784 1719 
z
" transform="scale(0.015625)"/>
       </defs>
       <use xlink:href="#ArialMT-41"/>
       <use xlink:href="#ArialMT-75" x="66.699219"/>
       <use xlink:href="#ArialMT-67" x="122.314453"/>
      </g>
     </g>
    </g>
    <g id="xtick_9">
     <g id="line2d_9">
      <path d="M 849.56244 321.739375 
L 849.56244 21.935625 
" clip-path="url(#p32db65c3d4)" style="fill: none; stroke: #cccccc; stroke-linecap: round"/>
     </g>
     <g id="text_9">
      <!-- Sep -->
      <g style="fill: #262626" transform="translate(839.776737 339.247031) scale(0.11 -0.11)">
       <defs>
        <path id="ArialMT-53" d="M 288 1472 
L 859 1522 
Q 900 1178 1048 958 
Q 1197 738 1509 602 
Q 1822 466 2213 466 
Q 2559 466 2825 569 
Q 3091 672 3220 851 
Q 3350 1031 3350 1244 
Q 3350 1459 3225 1620 
Q 3100 1781 2813 1891 
Q 2628 1963 1997 2114 
Q 1366 2266 1113 2400 
Q 784 2572 623 2826 
Q 463 3081 463 3397 
Q 463 3744 659 4045 
Q 856 4347 1234 4503 
Q 1613 4659 2075 4659 
Q 2584 4659 2973 4495 
Q 3363 4331 3572 4012 
Q 3781 3694 3797 3291 
L 3216 3247 
Q 3169 3681 2898 3903 
Q 2628 4125 2100 4125 
Q 1550 4125 1298 3923 
Q 1047 3722 1047 3438 
Q 1047 3191 1225 3031 
Q 1400 2872 2139 2705 
Q 2878 2538 3153 2413 
Q 3553 2228 3743 1945 
Q 3934 1663 3934 1294 
Q 3934 928 3725 604 
Q 3516 281 3123 101 
Q 2731 -78 2241 -78 
Q 1619 -78 1198 103 
Q 778 284 539 648 
Q 300 1013 288 1472 
z
" transform="scale(0.015625)"/>
       </defs>
       <use xlink:href="#ArialMT-53"/>
       <use xlink:href="#ArialMT-65" x="66.699219"/>
       <use xlink:href="#ArialMT-70" x="122.314453"/>
      </g>
     </g>
    </g>
    <g id="xtick_10">
     <g id="line2d_10">
      <path d="M 946.742969 321.739375 
L 946.742969 21.935625 
" clip-path="url(#p32db65c3d4)" style="fill: none; stroke: #cccccc; stroke-linecap: round"/>
     </g>
     <g id="text_10">
      <!-- Oct -->
      <g style="fill: #262626" transform="translate(938.187031 339.112969) scale(0.11 -0.11)">
       <defs>
        <path id="ArialMT-4f" d="M 309 2231 
Q 309 3372 921 4017 
Q 1534 4663 2503 4663 
Q 3138 4663 3647 4359 
Q 4156 4056 4423 3514 
Q 4691 2972 4691 2284 
Q 4691 1588 4409 1038 
Q 4128 488 3612 205 
Q 3097 -78 2500 -78 
Q 1853 -78 1343 234 
Q 834 547 571 1087 
Q 309 1628 309 2231 
z
M 934 2222 
Q 934 1394 1379 917 
Q 1825 441 2497 441 
Q 3181 441 3623 922 
Q 4066 1403 4066 2288 
Q 4066 2847 3877 3264 
Q 3688 3681 3323 3911 
Q 2959 4141 2506 4141 
Q 1863 4141 1398 3698 
Q 934 3256 934 2222 
z
" transform="scale(0.015625)"/>
        <path id="ArialMT-63" d="M 2588 1216 
L 3141 1144 
Q 3050 572 2676 248 
Q 2303 -75 1759 -75 
Q 1078 -75 664 370 
Q 250 816 250 1647 
Q 250 2184 428 2587 
Q 606 2991 970 3192 
Q 1334 3394 1763 3394 
Q 2303 3394 2647 3120 
Q 2991 2847 3088 2344 
L 2541 2259 
Q 2463 2594 2264 2762 
Q 2066 2931 1784 2931 
Q 1359 2931 1093 2626 
Q 828 2322 828 1663 
Q 828 994 1084 691 
Q 1341 388 1753 388 
Q 2084 388 2306 591 
Q 2528 794 2588 1216 
z
" transform="scale(0.015625)"/>
        <path id="ArialMT-74" d="M 1650 503 
L 1731 6 
Q 1494 -44 1306 -44 
Q 1000 -44 831 53 
Q 663 150 594 308 
Q 525 466 525 972 
L 525 2881 
L 113 2881 
L 113 3319 
L 525 3319 
L 525 4141 
L 1084 4478 
L 1084 3319 
L 1650 3319 
L 1650 2881 
L 1084 2881 
L 1084 941 
Q 1084 700 1114 631 
Q 1144 563 1211 522 
Q 1278 481 1403 481 
Q 1497 481 1650 503 
z
" transform="scale(0.015625)"/>
       </defs>
       <use xlink:href="#ArialMT-4f"/>
       <use xlink:href="#ArialMT-63" x="77.783203"/>
       <use xlink:href="#ArialMT-74" x="127.783203"/>
      </g>
     </g>
    </g>
    <g id="xtick_11">
     <g id="line2d_11">
      <path d="M 1047.162849 321.739375 
L 1047.162849 21.935625 
" clip-path="url(#p32db65c3d4)" style="fill: none; stroke: #cccccc; stroke-linecap: round"/>
     </g>
     <g id="text_11">
      <!-- Nov -->
      <g style="fill: #262626" transform="translate(1037.382302 339.112969) scale(0.11 -0.11)">
       <defs>
        <path id="ArialMT-4e" d="M 488 0 
L 488 4581 
L 1109 4581 
L 3516 984 
L 3516 4581 
L 4097 4581 
L 4097 0 
L 3475 0 
L 1069 3600 
L 1069 0 
L 488 0 
z
" transform="scale(0.015625)"/>
        <path id="ArialMT-6f" d="M 213 1659 
Q 213 2581 725 3025 
Q 1153 3394 1769 3394 
Q 2453 3394 2887 2945 
Q 3322 2497 3322 1706 
Q 3322 1066 3130 698 
Q 2938 331 2570 128 
Q 2203 -75 1769 -75 
Q 1072 -75 642 372 
Q 213 819 213 1659 
z
M 791 1659 
Q 791 1022 1069 705 
Q 1347 388 1769 388 
Q 2188 388 2466 706 
Q 2744 1025 2744 1678 
Q 2744 2294 2464 2611 
Q 2184 2928 1769 2928 
Q 1347 2928 1069 2612 
Q 791 2297 791 1659 
z
" transform="scale(0.015625)"/>
        <path id="ArialMT-76" d="M 1344 0 
L 81 3319 
L 675 3319 
L 1388 1331 
Q 1503 1009 1600 663 
Q 1675 925 1809 1294 
L 2547 3319 
L 3125 3319 
L 1869 0 
L 1344 0 
z
" transform="scale(0.015625)"/>
       </defs>
       <use xlink:href="#ArialMT-4e"/>
       <use xlink:href="#ArialMT-6f" x="72.216797"/>
       <use xlink:href="#ArialMT-76" x="127.832031"/>
      </g>
     </g>
    </g>
    <g id="xtick_12">
     <g id="line2d_12">
      <path d="M 1144.343377 321.739375 
L 1144.343377 21.935625 
" clip-path="url(#p32db65c3d4)" style="fill: none; stroke: #cccccc; stroke-linecap: round"/>
     </g>
     <g id="text_12">
      <!-- Dec -->
      <g style="fill: #262626" transform="translate(1134.562831 339.112969) scale(0.11 -0.11)">
       <defs>
        <path id="ArialMT-44" d="M 494 0 
L 494 4581 
L 2072 4581 
Q 2606 4581 2888 4516 
Q 3281 4425 3559 4188 
Q 3922 3881 4101 3404 
Q 4281 2928 4281 2316 
Q 4281 1794 4159 1391 
Q 4038 988 3847 723 
Q 3656 459 3429 307 
Q 3203 156 2883 78 
Q 2563 0 2147 0 
L 494 0 
z
M 1100 541 
L 2078 541 
Q 2531 541 2789 625 
Q 3047 709 3200 863 
Q 3416 1078 3536 1442 
Q 3656 1806 3656 2325 
Q 3656 3044 3420 3430 
Q 3184 3816 2847 3947 
Q 2603 4041 2063 4041 
L 1100 4041 
L 1100 541 
z
" transform="scale(0.015625)"/>
       </defs>
       <use xlink:href="#ArialMT-44"/>
       <use xlink:href="#ArialMT-65" x="72.216797"/>
       <use xlink:href="#ArialMT-63" x="127.832031"/>
      </g>
     </g>
    </g>
   </g>
   <g id="matplotlib.axis_2">
    <g id="ytick_1">
     <g id="line2d_13">
      <path d="M 62.400156 308.111932 
L 1241.523906 308.111932 
" clip-path="url(#p32db65c3d4)" style="fill: none; stroke: #cccccc; stroke-linecap: round"/>
     </g>
     <g id="text_13">
      <!-- 0 -->
      <g style="fill: #262626" transform="translate(46.783125 312.048729) scale(0.11 -0.11)">
       <defs>
        <path id="ArialMT-30" d="M 266 2259 
Q 266 3072 433 3567 
Q 600 4063 929 4331 
Q 1259 4600 1759 4600 
Q 2128 4600 2406 4451 
Q 2684 4303 2865 4023 
Q 3047 3744 3150 3342 
Q 3253 2941 3253 2259 
Q 3253 1453 3087 958 
Q 2922 463 2592 192 
Q 2263 -78 1759 -78 
Q 1097 -78 719 397 
Q 266 969 266 2259 
z
M 844 2259 
Q 844 1131 1108 757 
Q 1372 384 1759 384 
Q 2147 384 2411 759 
Q 2675 1134 2675 2259 
Q 2675 3391 2411 3762 
Q 2147 4134 1753 4134 
Q 1366 4134 1134 3806 
Q 844 3388 844 2259 
z
" transform="scale(0.015625)"/>
       </defs>
       <use xlink:href="#ArialMT-30"/>
      </g>
     </g>
    </g>
    <g id="ytick_2">
     <g id="line2d_14">
      <path d="M 62.400156 270.399345 
L 1241.523906 270.399345 
" clip-path="url(#p32db65c3d4)" style="fill: none; stroke: #cccccc; stroke-linecap: round"/>
     </g>
     <g id="text_14">
      <!-- 2000 -->
      <g style="fill: #262626" transform="translate(28.432031 274.336142) scale(0.11 -0.11)">
       <defs>
        <path id="ArialMT-32" d="M 3222 541 
L 3222 0 
L 194 0 
Q 188 203 259 391 
Q 375 700 629 1000 
Q 884 1300 1366 1694 
Q 2113 2306 2375 2664 
Q 2638 3022 2638 3341 
Q 2638 3675 2398 3904 
Q 2159 4134 1775 4134 
Q 1369 4134 1125 3890 
Q 881 3647 878 3216 
L 300 3275 
Q 359 3922 746 4261 
Q 1134 4600 1788 4600 
Q 2447 4600 2831 4234 
Q 3216 3869 3216 3328 
Q 3216 3053 3103 2787 
Q 2991 2522 2730 2228 
Q 2469 1934 1863 1422 
Q 1356 997 1212 845 
Q 1069 694 975 541 
L 3222 541 
z
" transform="scale(0.015625)"/>
       </defs>
       <use xlink:href="#ArialMT-32"/>
       <use xlink:href="#ArialMT-30" x="55.615234"/>
       <use xlink:href="#ArialMT-30" x="111.230469"/>
       <use xlink:href="#ArialMT-30" x="166.845703"/>
      </g>
     </g>
    </g>
    <g id="ytick_3">
     <g id="line2d_15">
      <path d="M 62.400156 232.686759 
L 1241.523906 232.686759 
" clip-path="url(#p32db65c3d4)" style="fill: none; stroke: #cccccc; stroke-linecap: round"/>
     </g>
     <g id="text_15">
      <!-- 4000 -->
      <g style="fill: #262626" transform="translate(28.432031 236.623555) scale(0.11 -0.11)">
       <defs>
        <path id="ArialMT-34" d="M 2069 0 
L 2069 1097 
L 81 1097 
L 81 1613 
L 2172 4581 
L 2631 4581 
L 2631 1613 
L 3250 1613 
L 3250 1097 
L 2631 1097 
L 2631 0 
L 2069 0 
z
M 2069 1613 
L 2069 3678 
L 634 1613 
L 2069 1613 
z
" transform="scale(0.015625)"/>
       </defs>
       <use xlink:href="#ArialMT-34"/>
       <use xlink:href="#ArialMT-30" x="55.615234"/>
       <use xlink:href="#ArialMT-30" x="111.230469"/>
       <use xlink:href="#ArialMT-30" x="166.845703"/>
      </g>
     </g>
    </g>
    <g id="ytick_4">
     <g id="line2d_16">
      <path d="M 62.400156 194.974172 
L 1241.523906 194.974172 
" clip-path="url(#p32db65c3d4)" style="fill: none; stroke: #cccccc; stroke-linecap: round"/>
     </g>
     <g id="text_16">
      <!-- 6000 -->
      <g style="fill: #262626" transform="translate(28.432031 198.910969) scale(0.11 -0.11)">
       <defs>
        <path id="ArialMT-36" d="M 3184 3459 
L 2625 3416 
Q 2550 3747 2413 3897 
Q 2184 4138 1850 4138 
Q 1581 4138 1378 3988 
Q 1113 3794 959 3422 
Q 806 3050 800 2363 
Q 1003 2672 1297 2822 
Q 1591 2972 1913 2972 
Q 2475 2972 2870 2558 
Q 3266 2144 3266 1488 
Q 3266 1056 3080 686 
Q 2894 316 2569 119 
Q 2244 -78 1831 -78 
Q 1128 -78 684 439 
Q 241 956 241 2144 
Q 241 3472 731 4075 
Q 1159 4600 1884 4600 
Q 2425 4600 2770 4297 
Q 3116 3994 3184 3459 
z
M 888 1484 
Q 888 1194 1011 928 
Q 1134 663 1356 523 
Q 1578 384 1822 384 
Q 2178 384 2434 671 
Q 2691 959 2691 1453 
Q 2691 1928 2437 2201 
Q 2184 2475 1800 2475 
Q 1419 2475 1153 2201 
Q 888 1928 888 1484 
z
" transform="scale(0.015625)"/>
       </defs>
       <use xlink:href="#ArialMT-36"/>
       <use xlink:href="#ArialMT-30" x="55.615234"/>
       <use xlink:href="#ArialMT-30" x="111.230469"/>
       <use xlink:href="#ArialMT-30" x="166.845703"/>
      </g>
     </g>
    </g>
    <g id="ytick_5">
     <g id="line2d_17">
      <path d="M 62.400156 157.261585 
L 1241.523906 157.261585 
" clip-path="url(#p32db65c3d4)" style="fill: none; stroke: #cccccc; stroke-linecap: round"/>
     </g>
     <g id="text_17">
      <!-- 8000 -->
      <g style="fill: #262626" transform="translate(28.432031 161.198382) scale(0.11 -0.11)">
       <defs>
        <path id="ArialMT-38" d="M 1131 2484 
Q 781 2613 612 2850 
Q 444 3088 444 3419 
Q 444 3919 803 4259 
Q 1163 4600 1759 4600 
Q 2359 4600 2725 4251 
Q 3091 3903 3091 3403 
Q 3091 3084 2923 2848 
Q 2756 2613 2416 2484 
Q 2838 2347 3058 2040 
Q 3278 1734 3278 1309 
Q 3278 722 2862 322 
Q 2447 -78 1769 -78 
Q 1091 -78 675 323 
Q 259 725 259 1325 
Q 259 1772 486 2073 
Q 713 2375 1131 2484 
z
M 1019 3438 
Q 1019 3113 1228 2906 
Q 1438 2700 1772 2700 
Q 2097 2700 2305 2904 
Q 2513 3109 2513 3406 
Q 2513 3716 2298 3927 
Q 2084 4138 1766 4138 
Q 1444 4138 1231 3931 
Q 1019 3725 1019 3438 
z
M 838 1322 
Q 838 1081 952 856 
Q 1066 631 1291 507 
Q 1516 384 1775 384 
Q 2178 384 2440 643 
Q 2703 903 2703 1303 
Q 2703 1709 2433 1975 
Q 2163 2241 1756 2241 
Q 1359 2241 1098 1978 
Q 838 1716 838 1322 
z
" transform="scale(0.015625)"/>
       </defs>
       <use xlink:href="#ArialMT-38"/>
       <use xlink:href="#ArialMT-30" x="55.615234"/>
       <use xlink:href="#ArialMT-30" x="111.230469"/>
       <use xlink:href="#ArialMT-30" x="166.845703"/>
      </g>
     </g>
    </g>
    <g id="ytick_6">
     <g id="line2d_18">
      <path d="M 62.400156 119.548999 
L 1241.523906 119.548999 
" clip-path="url(#p32db65c3d4)" style="fill: none; stroke: #cccccc; stroke-linecap: round"/>
     </g>
     <g id="text_18">
      <!-- 10000 -->
      <g style="fill: #262626" transform="translate(22.315 123.485796) scale(0.11 -0.11)">
       <defs>
        <path id="ArialMT-31" d="M 2384 0 
L 1822 0 
L 1822 3584 
Q 1619 3391 1289 3197 
Q 959 3003 697 2906 
L 697 3450 
Q 1169 3672 1522 3987 
Q 1875 4303 2022 4600 
L 2384 4600 
L 2384 0 
z
" transform="scale(0.015625)"/>
       </defs>
       <use xlink:href="#ArialMT-31"/>
       <use xlink:href="#ArialMT-30" x="55.615234"/>
       <use xlink:href="#ArialMT-30" x="111.230469"/>
       <use xlink:href="#ArialMT-30" x="166.845703"/>
       <use xlink:href="#ArialMT-30" x="222.460938"/>
      </g>
     </g>
    </g>
    <g id="ytick_7">
     <g id="line2d_19">
      <path d="M 62.400156 81.836412 
L 1241.523906 81.836412 
" clip-path="url(#p32db65c3d4)" style="fill: none; stroke: #cccccc; stroke-linecap: round"/>
     </g>
     <g id="text_19">
      <!-- 12000 -->
      <g style="fill: #262626" transform="translate(22.315 85.773209) scale(0.11 -0.11)">
       <use xlink:href="#ArialMT-31"/>
       <use xlink:href="#ArialMT-32" x="55.615234"/>
       <use xlink:href="#ArialMT-30" x="111.230469"/>
       <use xlink:href="#ArialMT-30" x="166.845703"/>
       <use xlink:href="#ArialMT-30" x="222.460938"/>
      </g>
     </g>
    </g>
    <g id="ytick_8">
     <g id="line2d_20">
      <path d="M 62.400156 44.123825 
L 1241.523906 44.123825 
" clip-path="url(#p32db65c3d4)" style="fill: none; stroke: #cccccc; stroke-linecap: round"/>
     </g>
     <g id="text_20">
      <!-- 14000 -->
      <g style="fill: #262626" transform="translate(22.315 48.060622) scale(0.11 -0.11)">
       <use xlink:href="#ArialMT-31"/>
       <use xlink:href="#ArialMT-34" x="55.615234"/>
       <use xlink:href="#ArialMT-30" x="111.230469"/>
       <use xlink:href="#ArialMT-30" x="166.845703"/>
       <use xlink:href="#ArialMT-30" x="222.460938"/>
      </g>
     </g>
    </g>
    <g id="text_21">
     <!-- Total Pages Read -->
     <g style="fill: #262626" transform="translate(15.789375 219.19625) rotate(-90) scale(0.12 -0.12)">
      <defs>
       <path id="ArialMT-54" d="M 1659 0 
L 1659 4041 
L 150 4041 
L 150 4581 
L 3781 4581 
L 3781 4041 
L 2266 4041 
L 2266 0 
L 1659 0 
z
" transform="scale(0.015625)"/>
       <path id="ArialMT-20" transform="scale(0.015625)"/>
       <path id="ArialMT-50" d="M 494 0 
L 494 4581 
L 2222 4581 
Q 2678 4581 2919 4538 
Q 3256 4481 3484 4323 
Q 3713 4166 3852 3881 
Q 3991 3597 3991 3256 
Q 3991 2672 3619 2267 
Q 3247 1863 2275 1863 
L 1100 1863 
L 1100 0 
L 494 0 
z
M 1100 2403 
L 2284 2403 
Q 2872 2403 3119 2622 
Q 3366 2841 3366 3238 
Q 3366 3525 3220 3729 
Q 3075 3934 2838 4000 
Q 2684 4041 2272 4041 
L 1100 4041 
L 1100 2403 
z
" transform="scale(0.015625)"/>
       <path id="ArialMT-73" d="M 197 991 
L 753 1078 
Q 800 744 1014 566 
Q 1228 388 1613 388 
Q 2000 388 2187 545 
Q 2375 703 2375 916 
Q 2375 1106 2209 1216 
Q 2094 1291 1634 1406 
Q 1016 1563 777 1677 
Q 538 1791 414 1992 
Q 291 2194 291 2438 
Q 291 2659 392 2848 
Q 494 3038 669 3163 
Q 800 3259 1026 3326 
Q 1253 3394 1513 3394 
Q 1903 3394 2198 3281 
Q 2494 3169 2634 2976 
Q 2775 2784 2828 2463 
L 2278 2388 
Q 2241 2644 2061 2787 
Q 1881 2931 1553 2931 
Q 1166 2931 1000 2803 
Q 834 2675 834 2503 
Q 834 2394 903 2306 
Q 972 2216 1119 2156 
Q 1203 2125 1616 2013 
Q 2213 1853 2448 1751 
Q 2684 1650 2818 1456 
Q 2953 1263 2953 975 
Q 2953 694 2789 445 
Q 2625 197 2315 61 
Q 2006 -75 1616 -75 
Q 969 -75 630 194 
Q 291 463 197 991 
z
" transform="scale(0.015625)"/>
       <path id="ArialMT-52" d="M 503 0 
L 503 4581 
L 2534 4581 
Q 3147 4581 3465 4457 
Q 3784 4334 3975 4021 
Q 4166 3709 4166 3331 
Q 4166 2844 3850 2509 
Q 3534 2175 2875 2084 
Q 3116 1969 3241 1856 
Q 3506 1613 3744 1247 
L 4541 0 
L 3778 0 
L 3172 953 
Q 2906 1366 2734 1584 
Q 2563 1803 2427 1890 
Q 2291 1978 2150 2013 
Q 2047 2034 1813 2034 
L 1109 2034 
L 1109 0 
L 503 0 
z
M 1109 2559 
L 2413 2559 
Q 2828 2559 3062 2645 
Q 3297 2731 3419 2920 
Q 3541 3109 3541 3331 
Q 3541 3656 3305 3865 
Q 3069 4075 2559 4075 
L 1109 4075 
L 1109 2559 
z
" transform="scale(0.015625)"/>
       <path id="ArialMT-64" d="M 2575 0 
L 2575 419 
Q 2259 -75 1647 -75 
Q 1250 -75 917 144 
Q 584 363 401 755 
Q 219 1147 219 1656 
Q 219 2153 384 2558 
Q 550 2963 881 3178 
Q 1213 3394 1622 3394 
Q 1922 3394 2156 3267 
Q 2391 3141 2538 2938 
L 2538 4581 
L 3097 4581 
L 3097 0 
L 2575 0 
z
M 797 1656 
Q 797 1019 1065 703 
Q 1334 388 1700 388 
Q 2069 388 2326 689 
Q 2584 991 2584 1609 
Q 2584 2291 2321 2609 
Q 2059 2928 1675 2928 
Q 1300 2928 1048 2622 
Q 797 2316 797 1656 
z
" transform="scale(0.015625)"/>
      </defs>
      <use xlink:href="#ArialMT-54"/>
      <use xlink:href="#ArialMT-6f" x="49.958984"/>
      <use xlink:href="#ArialMT-74" x="105.574219"/>
      <use xlink:href="#ArialMT-61" x="133.357422"/>
      <use xlink:href="#ArialMT-6c" x="188.972656"/>
      <use xlink:href="#ArialMT-20" x="211.189453"/>
      <use xlink:href="#ArialMT-50" x="238.972656"/>
      <use xlink:href="#ArialMT-61" x="305.671875"/>
      <use xlink:href="#ArialMT-67" x="361.287109"/>
      <use xlink:href="#ArialMT-65" x="416.902344"/>
      <use xlink:href="#ArialMT-73" x="472.517578"/>
      <use xlink:href="#ArialMT-20" x="522.517578"/>
      <use xlink:href="#ArialMT-52" x="550.300781"/>
      <use xlink:href="#ArialMT-65" x="622.517578"/>
      <use xlink:href="#ArialMT-61" x="678.132812"/>
      <use xlink:href="#ArialMT-64" x="733.748047"/>
     </g>
    </g>
   </g>
   <g id="PolyCollection_1">
    <defs>
     <path id="mc1e2f16718" d="M 62.400156 -41.143607 
L 62.400156 -40.988043 
L 65.639507 -41.454736 
L 68.878858 -41.921429 
L 72.118209 -42.388122 
L 75.35756 -42.854816 
L 78.596911 -43.321509 
L 81.836262 -43.788202 
L 85.075613 -44.254896 
L 88.314964 -44.721589 
L 91.554315 -45.188282 
L 94.793666 -45.654975 
L 98.033017 -46.121669 
L 101.272368 -46.588362 
L 104.511719 -47.055055 
L 107.75107 -47.521748 
L 110.990421 -47.988442 
L 114.229772 -48.455135 
L 117.469123 -48.921828 
L 120.708474 -49.388521 
L 123.947825 -49.855215 
L 127.187175 -50.321908 
L 130.426526 -50.788601 
L 133.665877 -51.255294 
L 136.905228 -51.721988 
L 140.144579 -52.188681 
L 143.38393 -52.655374 
L 146.623281 -53.122067 
L 149.862632 -53.588761 
L 153.101983 -54.055454 
L 156.341334 -54.522147 
L 159.580685 -54.98884 
L 162.820036 -55.455534 
L 166.059387 -55.922227 
L 169.298738 -56.38892 
L 172.538089 -56.855614 
L 175.77744 -57.322307 
L 179.016791 -57.789 
L 182.256142 -58.255693 
L 185.495493 -58.722387 
L 188.734844 -59.18908 
L 191.974195 -59.655773 
L 195.213546 -60.122466 
L 198.452897 -60.58916 
L 201.692248 -61.055853 
L 204.931599 -61.522546 
L 208.17095 -61.989239 
L 211.4103 -62.455933 
L 214.649651 -62.922626 
L 217.889002 -63.389319 
L 221.128353 -63.856012 
L 224.367704 -64.322706 
L 227.607055 -64.789399 
L 230.846406 -65.256092 
L 234.085757 -65.722785 
L 237.325108 -66.189479 
L 240.564459 -66.656172 
L 243.80381 -67.122865 
L 247.043161 -67.589558 
L 250.282512 -68.056252 
L 253.521863 -68.522945 
L 256.761214 -68.989638 
L 260.000565 -69.456332 
L 263.239916 -69.923025 
L 266.479267 -70.389718 
L 269.718618 -70.856411 
L 272.957969 -71.323105 
L 276.19732 -71.789798 
L 279.436671 -72.256491 
L 282.676022 -72.723184 
L 285.915373 -73.189878 
L 289.154724 -73.656571 
L 292.394075 -74.123264 
L 295.633425 -74.589957 
L 298.872776 -75.056651 
L 302.112127 -75.523344 
L 305.351478 -75.990037 
L 308.590829 -76.45673 
L 311.83018 -76.923424 
L 315.069531 -77.390117 
L 318.308882 -77.85681 
L 321.548233 -78.323503 
L 324.787584 -78.790197 
L 328.026935 -79.25689 
L 331.266286 -79.723583 
L 334.505637 -80.190277 
L 337.744988 -80.65697 
L 340.984339 -81.123663 
L 344.22369 -81.590356 
L 347.463041 -82.05705 
L 350.702392 -82.523743 
L 353.941743 -82.990436 
L 357.181094 -83.457129 
L 360.420445 -83.923823 
L 363.659796 -84.390516 
L 366.899147 -84.857209 
L 370.138498 -85.323902 
L 373.377849 -85.790596 
L 376.6172 -86.257289 
L 379.85655 -86.723982 
L 383.095901 -87.190675 
L 386.335252 -87.657369 
L 389.574603 -88.124062 
L 392.813954 -88.590755 
L 396.053305 -89.057448 
L 399.292656 -89.524142 
L 402.532007 -89.990835 
L 405.771358 -90.457528 
L 409.010709 -90.924221 
L 412.25006 -91.390915 
L 415.489411 -91.857608 
L 418.728762 -92.324301 
L 421.968113 -92.790995 
L 425.207464 -93.257688 
L 428.446815 -93.724381 
L 431.686166 -94.191074 
L 434.925517 -94.657768 
L 438.164868 -95.124461 
L 441.404219 -95.591154 
L 444.64357 -96.057847 
L 447.882921 -96.524541 
L 451.122272 -96.991234 
L 454.361623 -97.457927 
L 457.600974 -97.92462 
L 460.840325 -98.391314 
L 464.079675 -98.858007 
L 467.319026 -99.3247 
L 470.558377 -99.791393 
L 473.797728 -100.258087 
L 477.037079 -100.72478 
L 480.27643 -101.191473 
L 483.515781 -101.658166 
L 486.755132 -102.12486 
L 489.994483 -102.591553 
L 493.233834 -103.058246 
L 496.473185 -103.524939 
L 499.712536 -103.991633 
L 502.951887 -104.458326 
L 506.191238 -104.925019 
L 509.430589 -105.391713 
L 512.66994 -105.858406 
L 515.909291 -106.325099 
L 519.148642 -106.791792 
L 522.387993 -107.258486 
L 525.627344 -107.725179 
L 528.866695 -108.191872 
L 532.106046 -108.658565 
L 535.345397 -109.125259 
L 538.584748 -109.591952 
L 541.824099 -110.058645 
L 545.06345 -110.525338 
L 548.3028 -110.992032 
L 551.542151 -111.458725 
L 554.781502 -111.925418 
L 558.020853 -112.392111 
L 561.260204 -112.858805 
L 564.499555 -113.325498 
L 567.738906 -113.792191 
L 570.978257 -114.258884 
L 574.217608 -114.725578 
L 577.456959 -115.192271 
L 580.69631 -115.658964 
L 583.935661 -116.125657 
L 587.175012 -116.592351 
L 590.414363 -117.059044 
L 593.653714 -117.525737 
L 596.893065 -117.992431 
L 600.132416 -118.459124 
L 603.371767 -118.925817 
L 606.611118 -119.39251 
L 609.850469 -119.859204 
L 613.08982 -120.325897 
L 616.329171 -120.79259 
L 619.568522 -121.259283 
L 622.807873 -121.725977 
L 626.047224 -122.19267 
L 629.286575 -122.659363 
L 632.525925 -123.126056 
L 635.765276 -123.59275 
L 639.004627 -124.059443 
L 642.243978 -124.526136 
L 645.483329 -124.992829 
L 648.72268 -125.459523 
L 651.962031 -125.926216 
L 655.201382 -126.392909 
L 658.440733 -126.859602 
L 661.680084 -127.326296 
L 664.919435 -127.792989 
L 668.158786 -128.259682 
L 671.398137 -128.726376 
L 674.637488 -129.193069 
L 677.876839 -129.659762 
L 681.11619 -130.126455 
L 684.355541 -130.593149 
L 687.594892 -131.059842 
L 690.834243 -131.526535 
L 694.073594 -131.993228 
L 697.312945 -132.459922 
L 700.552296 -132.926615 
L 703.791647 -133.393308 
L 707.030998 -133.860001 
L 710.270349 -134.326695 
L 713.5097 -134.793388 
L 716.74905 -135.260081 
L 719.988401 -135.726774 
L 723.227752 -136.193468 
L 726.467103 -136.660161 
L 729.706454 -137.126854 
L 732.945805 -137.593547 
L 736.185156 -138.060241 
L 739.424507 -138.526934 
L 742.663858 -138.993627 
L 745.903209 -139.46032 
L 749.14256 -139.927014 
L 752.381911 -140.393707 
L 755.621262 -140.8604 
L 758.860613 -141.327094 
L 762.099964 -141.793787 
L 765.339315 -142.26048 
L 768.578666 -142.727173 
L 771.818017 -143.193867 
L 775.057368 -143.66056 
L 778.296719 -144.127253 
L 781.53607 -144.593946 
L 784.775421 -145.06064 
L 788.014772 -145.527333 
L 791.254123 -145.994026 
L 794.493474 -146.460719 
L 797.732825 -146.927413 
L 800.972175 -147.394106 
L 804.211526 -147.860799 
L 807.450877 -148.327492 
L 810.690228 -148.794186 
L 813.929579 -149.260879 
L 817.16893 -149.727572 
L 820.408281 -150.194265 
L 823.647632 -150.660959 
L 826.886983 -151.127652 
L 830.126334 -151.594345 
L 833.365685 -152.061038 
L 836.605036 -152.527732 
L 839.844387 -152.994425 
L 843.083738 -153.461118 
L 846.323089 -153.927812 
L 849.56244 -154.394505 
L 852.801791 -154.861198 
L 856.041142 -155.327891 
L 859.280493 -155.794585 
L 862.519844 -156.261278 
L 865.759195 -156.727971 
L 868.998546 -157.194664 
L 872.237897 -157.661358 
L 875.477248 -158.128051 
L 878.716599 -158.594744 
L 881.95595 -159.061437 
L 885.1953 -159.528131 
L 888.434651 -159.994824 
L 891.674002 -160.461517 
L 894.913353 -160.92821 
L 898.152704 -161.394904 
L 901.392055 -161.861597 
L 904.631406 -162.32829 
L 907.870757 -162.794983 
L 911.110108 -163.261677 
L 914.349459 -163.72837 
L 917.58881 -164.195063 
L 920.828161 -164.661756 
L 924.067512 -165.12845 
L 927.306863 -165.595143 
L 930.546214 -166.061836 
L 933.785565 -166.52853 
L 937.024916 -166.995223 
L 940.264267 -167.461916 
L 943.503618 -167.928609 
L 946.742969 -168.395303 
L 949.98232 -168.861996 
L 953.221671 -169.328689 
L 956.461022 -169.795382 
L 959.700373 -170.262076 
L 962.939724 -170.728769 
L 966.179075 -171.195462 
L 969.418425 -171.662155 
L 972.657776 -172.128849 
L 975.897127 -172.595542 
L 979.136478 -173.062235 
L 982.375829 -173.528928 
L 985.61518 -173.995622 
L 988.854531 -174.462315 
L 992.093882 -174.929008 
L 995.333233 -175.395701 
L 998.572584 -175.862395 
L 1001.811935 -176.329088 
L 1005.051286 -176.795781 
L 1008.290637 -177.262475 
L 1011.529988 -177.729168 
L 1014.769339 -178.195861 
L 1018.00869 -178.662554 
L 1021.248041 -179.129248 
L 1024.487392 -179.595941 
L 1027.726743 -180.062634 
L 1030.966094 -180.529327 
L 1034.205445 -180.996021 
L 1037.444796 -181.462714 
L 1040.684147 -181.929407 
L 1043.923498 -182.3961 
L 1047.162849 -182.862794 
L 1050.4022 -183.329487 
L 1053.64155 -183.79618 
L 1056.880901 -184.262873 
L 1060.120252 -184.729567 
L 1063.359603 -185.19626 
L 1066.598954 -185.662953 
L 1069.838305 -186.129646 
L 1073.077656 -186.59634 
L 1076.317007 -187.063033 
L 1079.556358 -187.529726 
L 1082.795709 -187.996419 
L 1086.03506 -188.463113 
L 1089.274411 -188.929806 
L 1092.513762 -189.396499 
L 1095.753113 -189.863193 
L 1098.992464 -190.329886 
L 1102.231815 -190.796579 
L 1105.471166 -191.263272 
L 1108.710517 -191.729966 
L 1111.949868 -192.196659 
L 1115.189219 -192.663352 
L 1118.42857 -193.130045 
L 1121.667921 -193.596739 
L 1124.907272 -194.063432 
L 1128.146623 -194.530125 
L 1131.385974 -194.996818 
L 1134.625325 -195.463512 
L 1137.864675 -195.930205 
L 1141.104026 -196.396898 
L 1144.343377 -196.863591 
L 1147.582728 -197.330285 
L 1150.822079 -197.796978 
L 1154.06143 -198.263671 
L 1157.300781 -198.730364 
L 1160.540132 -199.197058 
L 1163.779483 -199.663751 
L 1167.018834 -200.130444 
L 1170.258185 -200.597137 
L 1173.497536 -201.063831 
L 1176.736887 -201.530524 
L 1179.976238 -201.997217 
L 1183.215589 -202.463911 
L 1186.45494 -202.930604 
L 1189.694291 -203.397297 
L 1192.933642 -203.86399 
L 1196.172993 -204.330684 
L 1199.412344 -204.797377 
L 1202.651695 -205.26407 
L 1205.891046 -205.730763 
L 1209.130397 -206.197457 
L 1212.369748 -206.66415 
L 1215.609099 -207.130843 
L 1218.84845 -207.597536 
L 1222.0878 -208.06423 
L 1225.327151 -208.530923 
L 1228.566502 -208.997616 
L 1231.805853 -209.464309 
L 1235.045204 -209.931003 
L 1238.284555 -210.397696 
L 1241.523906 -210.864389 
L 1241.523906 -267.645402 
L 1241.523906 -267.645402 
L 1238.284555 -267.023145 
L 1235.045204 -266.400887 
L 1231.805853 -265.778629 
L 1228.566502 -265.156372 
L 1225.327151 -264.534114 
L 1222.0878 -263.911856 
L 1218.84845 -263.289599 
L 1215.609099 -262.667341 
L 1212.369748 -262.045083 
L 1209.130397 -261.422826 
L 1205.891046 -260.800568 
L 1202.651695 -260.17831 
L 1199.412344 -259.556053 
L 1196.172993 -258.933795 
L 1192.933642 -258.311537 
L 1189.694291 -257.68928 
L 1186.45494 -257.067022 
L 1183.215589 -256.444764 
L 1179.976238 -255.822507 
L 1176.736887 -255.200249 
L 1173.497536 -254.577991 
L 1170.258185 -253.955734 
L 1167.018834 -253.333476 
L 1163.779483 -252.711218 
L 1160.540132 -252.08896 
L 1157.300781 -251.466703 
L 1154.06143 -250.844445 
L 1150.822079 -250.222187 
L 1147.582728 -249.59993 
L 1144.343377 -248.977672 
L 1141.104026 -248.355414 
L 1137.864675 -247.733157 
L 1134.625325 -247.110899 
L 1131.385974 -246.488641 
L 1128.146623 -245.866384 
L 1124.907272 -245.244126 
L 1121.667921 -244.621868 
L 1118.42857 -243.999611 
L 1115.189219 -243.377353 
L 1111.949868 -242.755095 
L 1108.710517 -242.132838 
L 1105.471166 -241.51058 
L 1102.231815 -240.888322 
L 1098.992464 -240.266065 
L 1095.753113 -239.643807 
L 1092.513762 -239.021549 
L 1089.274411 -238.399292 
L 1086.03506 -237.777034 
L 1082.795709 -237.154776 
L 1079.556358 -236.532518 
L 1076.317007 -235.910261 
L 1073.077656 -235.288003 
L 1069.838305 -234.665745 
L 1066.598954 -234.043488 
L 1063.359603 -233.42123 
L 1060.120252 -232.798972 
L 1056.880901 -232.176715 
L 1053.64155 -231.554457 
L 1050.4022 -230.932199 
L 1047.162849 -230.309942 
L 1043.923498 -229.687684 
L 1040.684147 -229.065426 
L 1037.444796 -228.443169 
L 1034.205445 -227.820911 
L 1030.966094 -227.198653 
L 1027.726743 -226.576396 
L 1024.487392 -225.954138 
L 1021.248041 -225.33188 
L 1018.00869 -224.709623 
L 1014.769339 -224.087365 
L 1011.529988 -223.465107 
L 1008.290637 -222.84285 
L 1005.051286 -222.220592 
L 1001.811935 -221.598334 
L 998.572584 -220.976076 
L 995.333233 -220.353819 
L 992.093882 -219.731561 
L 988.854531 -219.109303 
L 985.61518 -218.487046 
L 982.375829 -217.864788 
L 979.136478 -217.24253 
L 975.897127 -216.620273 
L 972.657776 -215.998015 
L 969.418425 -215.375757 
L 966.179075 -214.7535 
L 962.939724 -214.131242 
L 959.700373 -213.508984 
L 956.461022 -212.886727 
L 953.221671 -212.264469 
L 949.98232 -211.642211 
L 946.742969 -211.019954 
L 943.503618 -210.397696 
L 940.264267 -209.775438 
L 937.024916 -209.153181 
L 933.785565 -208.530923 
L 930.546214 -207.908665 
L 927.306863 -207.286408 
L 924.067512 -206.66415 
L 920.828161 -206.041892 
L 917.58881 -205.419635 
L 914.349459 -204.797377 
L 911.110108 -204.175119 
L 907.870757 -203.552861 
L 904.631406 -202.930604 
L 901.392055 -202.308346 
L 898.152704 -201.686088 
L 894.913353 -201.063831 
L 891.674002 -200.441573 
L 888.434651 -199.819315 
L 885.1953 -199.197058 
L 881.95595 -198.5748 
L 878.716599 -197.952542 
L 875.477248 -197.330285 
L 872.237897 -196.708027 
L 868.998546 -196.085769 
L 865.759195 -195.463512 
L 862.519844 -194.841254 
L 859.280493 -194.218996 
L 856.041142 -193.596739 
L 852.801791 -192.974481 
L 849.56244 -192.352223 
L 846.323089 -191.729966 
L 843.083738 -191.107708 
L 839.844387 -190.48545 
L 836.605036 -189.863193 
L 833.365685 -189.240935 
L 830.126334 -188.618677 
L 826.886983 -187.996419 
L 823.647632 -187.374162 
L 820.408281 -186.751904 
L 817.16893 -186.129646 
L 813.929579 -185.507389 
L 810.690228 -184.885131 
L 807.450877 -184.262873 
L 804.211526 -183.640616 
L 800.972175 -183.018358 
L 797.732825 -182.3961 
L 794.493474 -181.773843 
L 791.254123 -181.151585 
L 788.014772 -180.529327 
L 784.775421 -179.90707 
L 781.53607 -179.284812 
L 778.296719 -178.662554 
L 775.057368 -178.040297 
L 771.818017 -177.418039 
L 768.578666 -176.795781 
L 765.339315 -176.173524 
L 762.099964 -175.551266 
L 758.860613 -174.929008 
L 755.621262 -174.306751 
L 752.381911 -173.684493 
L 749.14256 -173.062235 
L 745.903209 -172.439977 
L 742.663858 -171.81772 
L 739.424507 -171.195462 
L 736.185156 -170.573204 
L 732.945805 -169.950947 
L 729.706454 -169.328689 
L 726.467103 -168.706431 
L 723.227752 -168.084174 
L 719.988401 -167.461916 
L 716.74905 -166.839658 
L 713.5097 -166.217401 
L 710.270349 -165.595143 
L 707.030998 -164.972885 
L 703.791647 -164.350628 
L 700.552296 -163.72837 
L 697.312945 -163.106112 
L 694.073594 -162.483855 
L 690.834243 -161.861597 
L 687.594892 -161.239339 
L 684.355541 -160.617082 
L 681.11619 -159.994824 
L 677.876839 -159.372566 
L 674.637488 -158.750309 
L 671.398137 -158.128051 
L 668.158786 -157.505793 
L 664.919435 -156.883536 
L 661.680084 -156.261278 
L 658.440733 -155.63902 
L 655.201382 -155.016762 
L 651.962031 -154.394505 
L 648.72268 -153.772247 
L 645.483329 -153.149989 
L 642.243978 -152.527732 
L 639.004627 -151.905474 
L 635.765276 -151.283216 
L 632.525925 -150.660959 
L 629.286575 -150.038701 
L 626.047224 -149.416443 
L 622.807873 -148.794186 
L 619.568522 -148.171928 
L 616.329171 -147.54967 
L 613.08982 -146.927413 
L 609.850469 -146.305155 
L 606.611118 -145.682897 
L 603.371767 -145.06064 
L 600.132416 -144.438382 
L 596.893065 -143.816124 
L 593.653714 -143.193867 
L 590.414363 -142.571609 
L 587.175012 -141.949351 
L 583.935661 -141.327094 
L 580.69631 -140.704836 
L 577.456959 -140.082578 
L 574.217608 -139.46032 
L 570.978257 -138.838063 
L 567.738906 -138.215805 
L 564.499555 -137.593547 
L 561.260204 -136.97129 
L 558.020853 -136.349032 
L 554.781502 -135.726774 
L 551.542151 -135.104517 
L 548.3028 -134.482259 
L 545.06345 -133.860001 
L 541.824099 -133.237744 
L 538.584748 -132.615486 
L 535.345397 -131.993228 
L 532.106046 -131.370971 
L 528.866695 -130.748713 
L 525.627344 -130.126455 
L 522.387993 -129.504198 
L 519.148642 -128.88194 
L 515.909291 -128.259682 
L 512.66994 -127.637425 
L 509.430589 -127.015167 
L 506.191238 -126.392909 
L 502.951887 -125.770652 
L 499.712536 -125.148394 
L 496.473185 -124.526136 
L 493.233834 -123.903878 
L 489.994483 -123.281621 
L 486.755132 -122.659363 
L 483.515781 -122.037105 
L 480.27643 -121.414848 
L 477.037079 -120.79259 
L 473.797728 -120.170332 
L 470.558377 -119.548075 
L 467.319026 -118.925817 
L 464.079675 -118.303559 
L 460.840325 -117.681302 
L 457.600974 -117.059044 
L 454.361623 -116.436786 
L 451.122272 -115.814529 
L 447.882921 -115.192271 
L 444.64357 -114.570013 
L 441.404219 -113.947756 
L 438.164868 -113.325498 
L 434.925517 -112.70324 
L 431.686166 -112.080983 
L 428.446815 -111.458725 
L 425.207464 -110.836467 
L 421.968113 -110.21421 
L 418.728762 -109.591952 
L 415.489411 -108.969694 
L 412.25006 -108.347437 
L 409.010709 -107.725179 
L 405.771358 -107.102921 
L 402.532007 -106.480663 
L 399.292656 -105.858406 
L 396.053305 -105.236148 
L 392.813954 -104.61389 
L 389.574603 -103.991633 
L 386.335252 -103.369375 
L 383.095901 -102.747117 
L 379.85655 -102.12486 
L 376.6172 -101.502602 
L 373.377849 -100.880344 
L 370.138498 -100.258087 
L 366.899147 -99.635829 
L 363.659796 -99.013571 
L 360.420445 -98.391314 
L 357.181094 -97.769056 
L 353.941743 -97.146798 
L 350.702392 -96.524541 
L 347.463041 -95.902283 
L 344.22369 -95.280025 
L 340.984339 -94.657768 
L 337.744988 -94.03551 
L 334.505637 -93.413252 
L 331.266286 -92.790995 
L 328.026935 -92.168737 
L 324.787584 -91.546479 
L 321.548233 -90.924221 
L 318.308882 -90.301964 
L 315.069531 -89.679706 
L 311.83018 -89.057448 
L 308.590829 -88.435191 
L 305.351478 -87.812933 
L 302.112127 -87.190675 
L 298.872776 -86.568418 
L 295.633425 -85.94616 
L 292.394075 -85.323902 
L 289.154724 -84.701645 
L 285.915373 -84.079387 
L 282.676022 -83.457129 
L 279.436671 -82.834872 
L 276.19732 -82.212614 
L 272.957969 -81.590356 
L 269.718618 -80.968099 
L 266.479267 -80.345841 
L 263.239916 -79.723583 
L 260.000565 -79.101326 
L 256.761214 -78.479068 
L 253.521863 -77.85681 
L 250.282512 -77.234553 
L 247.043161 -76.612295 
L 243.80381 -75.990037 
L 240.564459 -75.367779 
L 237.325108 -74.745522 
L 234.085757 -74.123264 
L 230.846406 -73.501006 
L 227.607055 -72.878749 
L 224.367704 -72.256491 
L 221.128353 -71.634233 
L 217.889002 -71.011976 
L 214.649651 -70.389718 
L 211.4103 -69.76746 
L 208.17095 -69.145203 
L 204.931599 -68.522945 
L 201.692248 -67.900687 
L 198.452897 -67.27843 
L 195.213546 -66.656172 
L 191.974195 -66.033914 
L 188.734844 -65.411657 
L 185.495493 -64.789399 
L 182.256142 -64.167141 
L 179.016791 -63.544884 
L 175.77744 -62.922626 
L 172.538089 -62.300368 
L 169.298738 -61.678111 
L 166.059387 -61.055853 
L 162.820036 -60.433595 
L 159.580685 -59.811337 
L 156.341334 -59.18908 
L 153.101983 -58.566822 
L 149.862632 -57.944564 
L 146.623281 -57.322307 
L 143.38393 -56.700049 
L 140.144579 -56.077791 
L 136.905228 -55.455534 
L 133.665877 -54.833276 
L 130.426526 -54.211018 
L 127.187175 -53.588761 
L 123.947825 -52.966503 
L 120.708474 -52.344245 
L 117.469123 -51.721988 
L 114.229772 -51.09973 
L 110.990421 -50.477472 
L 107.75107 -49.855215 
L 104.511719 -49.232957 
L 101.272368 -48.610699 
L 98.033017 -47.988442 
L 94.793666 -47.366184 
L 91.554315 -46.743926 
L 88.314964 -46.121669 
L 85.075613 -45.499411 
L 81.836262 -44.877153 
L 78.596911 -44.254896 
L 75.35756 -43.632638 
L 72.118209 -43.01038 
L 68.878858 -42.388122 
L 65.639507 -41.765865 
L 62.400156 -41.143607 
z
" style="stroke: #4a4a4a; stroke-opacity: 0.15"/>
    </defs>
    <g clip-path="url(#p32db65c3d4)">
     <use xlink:href="#mc1e2f16718" x="0" y="348.633281" style="fill: #4a4a4a; fill-opacity: 0.15; stroke: #4a4a4a; stroke-opacity: 0.15"/>
    </g>
   </g>
   <g id="PolyCollection_2">
    <defs>
     <path id="m31f78bbce7" d="M 62.400156 -41.268059 
L 62.400156 -41.143607 
L 65.639507 -41.765865 
L 68.878858 -42.388122 
L 72.118209 -43.01038 
L 75.35756 -43.632638 
L 78.596911 -44.254896 
L 81.836262 -44.877153 
L 85.075613 -45.499411 
L 88.314964 -46.121669 
L 91.554315 -46.743926 
L 94.793666 -47.366184 
L 98.033017 -47.988442 
L 101.272368 -48.610699 
L 104.511719 -49.232957 
L 107.75107 -49.855215 
L 110.990421 -50.477472 
L 114.229772 -51.09973 
L 117.469123 -51.721988 
L 120.708474 -52.344245 
L 123.947825 -52.966503 
L 127.187175 -53.588761 
L 130.426526 -54.211018 
L 133.665877 -54.833276 
L 136.905228 -55.455534 
L 140.144579 -56.077791 
L 143.38393 -56.700049 
L 146.623281 -57.322307 
L 149.862632 -57.944564 
L 153.101983 -58.566822 
L 156.341334 -59.18908 
L 159.580685 -59.811337 
L 162.820036 -60.433595 
L 166.059387 -61.055853 
L 169.298738 -61.678111 
L 172.538089 -62.300368 
L 175.77744 -62.922626 
L 179.016791 -63.544884 
L 182.256142 -64.167141 
L 185.495493 -64.789399 
L 188.734844 -65.411657 
L 191.974195 -66.033914 
L 195.213546 -66.656172 
L 198.452897 -67.27843 
L 201.692248 -67.900687 
L 204.931599 -68.522945 
L 208.17095 -69.145203 
L 211.4103 -69.76746 
L 214.649651 -70.389718 
L 217.889002 -71.011976 
L 221.128353 -71.634233 
L 224.367704 -72.256491 
L 227.607055 -72.878749 
L 230.846406 -73.501006 
L 234.085757 -74.123264 
L 237.325108 -74.745522 
L 240.564459 -75.367779 
L 243.80381 -75.990037 
L 247.043161 -76.612295 
L 250.282512 -77.234553 
L 253.521863 -77.85681 
L 256.761214 -78.479068 
L 260.000565 -79.101326 
L 263.239916 -79.723583 
L 266.479267 -80.345841 
L 269.718618 -80.968099 
L 272.957969 -81.590356 
L 276.19732 -82.212614 
L 279.436671 -82.834872 
L 282.676022 -83.457129 
L 285.915373 -84.079387 
L 289.154724 -84.701645 
L 292.394075 -85.323902 
L 295.633425 -85.94616 
L 298.872776 -86.568418 
L 302.112127 -87.190675 
L 305.351478 -87.812933 
L 308.590829 -88.435191 
L 311.83018 -89.057448 
L 315.069531 -89.679706 
L 318.308882 -90.301964 
L 321.548233 -90.924221 
L 324.787584 -91.546479 
L 328.026935 -92.168737 
L 331.266286 -92.790995 
L 334.505637 -93.413252 
L 337.744988 -94.03551 
L 340.984339 -94.657768 
L 344.22369 -95.280025 
L 347.463041 -95.902283 
L 350.702392 -96.524541 
L 353.941743 -97.146798 
L 357.181094 -97.769056 
L 360.420445 -98.391314 
L 363.659796 -99.013571 
L 366.899147 -99.635829 
L 370.138498 -100.258087 
L 373.377849 -100.880344 
L 376.6172 -101.502602 
L 379.85655 -102.12486 
L 383.095901 -102.747117 
L 386.335252 -103.369375 
L 389.574603 -103.991633 
L 392.813954 -104.61389 
L 396.053305 -105.236148 
L 399.292656 -105.858406 
L 402.532007 -106.480663 
L 405.771358 -107.102921 
L 409.010709 -107.725179 
L 412.25006 -108.347437 
L 415.489411 -108.969694 
L 418.728762 -109.591952 
L 421.968113 -110.21421 
L 425.207464 -110.836467 
L 428.446815 -111.458725 
L 431.686166 -112.080983 
L 434.925517 -112.70324 
L 438.164868 -113.325498 
L 441.404219 -113.947756 
L 444.64357 -114.570013 
L 447.882921 -115.192271 
L 451.122272 -115.814529 
L 454.361623 -116.436786 
L 457.600974 -117.059044 
L 460.840325 -117.681302 
L 464.079675 -118.303559 
L 467.319026 -118.925817 
L 470.558377 -119.548075 
L 473.797728 -120.170332 
L 477.037079 -120.79259 
L 480.27643 -121.414848 
L 483.515781 -122.037105 
L 486.755132 -122.659363 
L 489.994483 -123.281621 
L 493.233834 -123.903878 
L 496.473185 -124.526136 
L 499.712536 -125.148394 
L 502.951887 -125.770652 
L 506.191238 -126.392909 
L 509.430589 -127.015167 
L 512.66994 -127.637425 
L 515.909291 -128.259682 
L 519.148642 -128.88194 
L 522.387993 -129.504198 
L 525.627344 -130.126455 
L 528.866695 -130.748713 
L 532.106046 -131.370971 
L 535.345397 -131.993228 
L 538.584748 -132.615486 
L 541.824099 -133.237744 
L 545.06345 -133.860001 
L 548.3028 -134.482259 
L 551.542151 -135.104517 
L 554.781502 -135.726774 
L 558.020853 -136.349032 
L 561.260204 -136.97129 
L 564.499555 -137.593547 
L 567.738906 -138.215805 
L 570.978257 -138.838063 
L 574.217608 -139.46032 
L 577.456959 -140.082578 
L 580.69631 -140.704836 
L 583.935661 -141.327094 
L 587.175012 -141.949351 
L 590.414363 -142.571609 
L 593.653714 -143.193867 
L 596.893065 -143.816124 
L 600.132416 -144.438382 
L 603.371767 -145.06064 
L 606.611118 -145.682897 
L 609.850469 -146.305155 
L 613.08982 -146.927413 
L 616.329171 -147.54967 
L 619.568522 -148.171928 
L 622.807873 -148.794186 
L 626.047224 -149.416443 
L 629.286575 -150.038701 
L 632.525925 -150.660959 
L 635.765276 -151.283216 
L 639.004627 -151.905474 
L 642.243978 -152.527732 
L 645.483329 -153.149989 
L 648.72268 -153.772247 
L 651.962031 -154.394505 
L 655.201382 -155.016762 
L 658.440733 -155.63902 
L 661.680084 -156.261278 
L 664.919435 -156.883536 
L 668.158786 -157.505793 
L 671.398137 -158.128051 
L 674.637488 -158.750309 
L 677.876839 -159.372566 
L 681.11619 -159.994824 
L 684.355541 -160.617082 
L 687.594892 -161.239339 
L 690.834243 -161.861597 
L 694.073594 -162.483855 
L 697.312945 -163.106112 
L 700.552296 -163.72837 
L 703.791647 -164.350628 
L 707.030998 -164.972885 
L 710.270349 -165.595143 
L 713.5097 -166.217401 
L 716.74905 -166.839658 
L 719.988401 -167.461916 
L 723.227752 -168.084174 
L 726.467103 -168.706431 
L 729.706454 -169.328689 
L 732.945805 -169.950947 
L 736.185156 -170.573204 
L 739.424507 -171.195462 
L 742.663858 -171.81772 
L 745.903209 -172.439977 
L 749.14256 -173.062235 
L 752.381911 -173.684493 
L 755.621262 -174.306751 
L 758.860613 -174.929008 
L 762.099964 -175.551266 
L 765.339315 -176.173524 
L 768.578666 -176.795781 
L 771.818017 -177.418039 
L 775.057368 -178.040297 
L 778.296719 -178.662554 
L 781.53607 -179.284812 
L 784.775421 -179.90707 
L 788.014772 -180.529327 
L 791.254123 -181.151585 
L 794.493474 -181.773843 
L 797.732825 -182.3961 
L 800.972175 -183.018358 
L 804.211526 -183.640616 
L 807.450877 -184.262873 
L 810.690228 -184.885131 
L 813.929579 -185.507389 
L 817.16893 -186.129646 
L 820.408281 -186.751904 
L 823.647632 -187.374162 
L 826.886983 -187.996419 
L 830.126334 -188.618677 
L 833.365685 -189.240935 
L 836.605036 -189.863193 
L 839.844387 -190.48545 
L 843.083738 -191.107708 
L 846.323089 -191.729966 
L 849.56244 -192.352223 
L 852.801791 -192.974481 
L 856.041142 -193.596739 
L 859.280493 -194.218996 
L 862.519844 -194.841254 
L 865.759195 -195.463512 
L 868.998546 -196.085769 
L 872.237897 -196.708027 
L 875.477248 -197.330285 
L 878.716599 -197.952542 
L 881.95595 -198.5748 
L 885.1953 -199.197058 
L 888.434651 -199.819315 
L 891.674002 -200.441573 
L 894.913353 -201.063831 
L 898.152704 -201.686088 
L 901.392055 -202.308346 
L 904.631406 -202.930604 
L 907.870757 -203.552861 
L 911.110108 -204.175119 
L 914.349459 -204.797377 
L 917.58881 -205.419635 
L 920.828161 -206.041892 
L 924.067512 -206.66415 
L 927.306863 -207.286408 
L 930.546214 -207.908665 
L 933.785565 -208.530923 
L 937.024916 -209.153181 
L 940.264267 -209.775438 
L 943.503618 -210.397696 
L 946.742969 -211.019954 
L 949.98232 -211.642211 
L 953.221671 -212.264469 
L 956.461022 -212.886727 
L 959.700373 -213.508984 
L 962.939724 -214.131242 
L 966.179075 -214.7535 
L 969.418425 -215.375757 
L 972.657776 -215.998015 
L 975.897127 -216.620273 
L 979.136478 -217.24253 
L 982.375829 -217.864788 
L 985.61518 -218.487046 
L 988.854531 -219.109303 
L 992.093882 -219.731561 
L 995.333233 -220.353819 
L 998.572584 -220.976076 
L 1001.811935 -221.598334 
L 1005.051286 -222.220592 
L 1008.290637 -222.84285 
L 1011.529988 -223.465107 
L 1014.769339 -224.087365 
L 1018.00869 -224.709623 
L 1021.248041 -225.33188 
L 1024.487392 -225.954138 
L 1027.726743 -226.576396 
L 1030.966094 -227.198653 
L 1034.205445 -227.820911 
L 1037.444796 -228.443169 
L 1040.684147 -229.065426 
L 1043.923498 -229.687684 
L 1047.162849 -230.309942 
L 1050.4022 -230.932199 
L 1053.64155 -231.554457 
L 1056.880901 -232.176715 
L 1060.120252 -232.798972 
L 1063.359603 -233.42123 
L 1066.598954 -234.043488 
L 1069.838305 -234.665745 
L 1073.077656 -235.288003 
L 1076.317007 -235.910261 
L 1079.556358 -236.532518 
L 1082.795709 -237.154776 
L 1086.03506 -237.777034 
L 1089.274411 -238.399292 
L 1092.513762 -239.021549 
L 1095.753113 -239.643807 
L 1098.992464 -240.266065 
L 1102.231815 -240.888322 
L 1105.471166 -241.51058 
L 1108.710517 -242.132838 
L 1111.949868 -242.755095 
L 1115.189219 -243.377353 
L 1118.42857 -243.999611 
L 1121.667921 -244.621868 
L 1124.907272 -245.244126 
L 1128.146623 -245.866384 
L 1131.385974 -246.488641 
L 1134.625325 -247.110899 
L 1137.864675 -247.733157 
L 1141.104026 -248.355414 
L 1144.343377 -248.977672 
L 1147.582728 -249.59993 
L 1150.822079 -250.222187 
L 1154.06143 -250.844445 
L 1157.300781 -251.466703 
L 1160.540132 -252.08896 
L 1163.779483 -252.711218 
L 1167.018834 -253.333476 
L 1170.258185 -253.955734 
L 1173.497536 -254.577991 
L 1176.736887 -255.200249 
L 1179.976238 -255.822507 
L 1183.215589 -256.444764 
L 1186.45494 -257.067022 
L 1189.694291 -257.68928 
L 1192.933642 -258.311537 
L 1196.172993 -258.933795 
L 1199.412344 -259.556053 
L 1202.651695 -260.17831 
L 1205.891046 -260.800568 
L 1209.130397 -261.422826 
L 1212.369748 -262.045083 
L 1215.609099 -262.667341 
L 1218.84845 -263.289599 
L 1222.0878 -263.911856 
L 1225.327151 -264.534114 
L 1228.566502 -265.156372 
L 1231.805853 -265.778629 
L 1235.045204 -266.400887 
L 1238.284555 -267.023145 
L 1241.523906 -267.645402 
L 1241.523906 -313.070213 
L 1241.523906 -313.070213 
L 1238.284555 -312.323504 
L 1235.045204 -311.576795 
L 1231.805853 -310.830085 
L 1228.566502 -310.083376 
L 1225.327151 -309.336667 
L 1222.0878 -308.589958 
L 1218.84845 -307.843249 
L 1215.609099 -307.096539 
L 1212.369748 -306.34983 
L 1209.130397 -305.603121 
L 1205.891046 -304.856412 
L 1202.651695 -304.109702 
L 1199.412344 -303.362993 
L 1196.172993 -302.616284 
L 1192.933642 -301.869575 
L 1189.694291 -301.122866 
L 1186.45494 -300.376156 
L 1183.215589 -299.629447 
L 1179.976238 -298.882738 
L 1176.736887 -298.136029 
L 1173.497536 -297.38932 
L 1170.258185 -296.64261 
L 1167.018834 -295.895901 
L 1163.779483 -295.149192 
L 1160.540132 -294.402483 
L 1157.300781 -293.655773 
L 1154.06143 -292.909064 
L 1150.822079 -292.162355 
L 1147.582728 -291.415646 
L 1144.343377 -290.668937 
L 1141.104026 -289.922227 
L 1137.864675 -289.175518 
L 1134.625325 -288.428809 
L 1131.385974 -287.6821 
L 1128.146623 -286.935391 
L 1124.907272 -286.188681 
L 1121.667921 -285.441972 
L 1118.42857 -284.695263 
L 1115.189219 -283.948554 
L 1111.949868 -283.201844 
L 1108.710517 -282.455135 
L 1105.471166 -281.708426 
L 1102.231815 -280.961717 
L 1098.992464 -280.215008 
L 1095.753113 -279.468298 
L 1092.513762 -278.721589 
L 1089.274411 -277.97488 
L 1086.03506 -277.228171 
L 1082.795709 -276.481462 
L 1079.556358 -275.734752 
L 1076.317007 -274.988043 
L 1073.077656 -274.241334 
L 1069.838305 -273.494625 
L 1066.598954 -272.747915 
L 1063.359603 -272.001206 
L 1060.120252 -271.254497 
L 1056.880901 -270.507788 
L 1053.64155 -269.761079 
L 1050.4022 -269.014369 
L 1047.162849 -268.26766 
L 1043.923498 -267.520951 
L 1040.684147 -266.774242 
L 1037.444796 -266.027532 
L 1034.205445 -265.280823 
L 1030.966094 -264.534114 
L 1027.726743 -263.787405 
L 1024.487392 -263.040696 
L 1021.248041 -262.293986 
L 1018.00869 -261.547277 
L 1014.769339 -260.800568 
L 1011.529988 -260.053859 
L 1008.290637 -259.30715 
L 1005.051286 -258.56044 
L 1001.811935 -257.813731 
L 998.572584 -257.067022 
L 995.333233 -256.320313 
L 992.093882 -255.573603 
L 988.854531 -254.826894 
L 985.61518 -254.080185 
L 982.375829 -253.333476 
L 979.136478 -252.586767 
L 975.897127 -251.840057 
L 972.657776 -251.093348 
L 969.418425 -250.346639 
L 966.179075 -249.59993 
L 962.939724 -248.853221 
L 959.700373 -248.106511 
L 956.461022 -247.359802 
L 953.221671 -246.613093 
L 949.98232 -245.866384 
L 946.742969 -245.119674 
L 943.503618 -244.372965 
L 940.264267 -243.626256 
L 937.024916 -242.879547 
L 933.785565 -242.132838 
L 930.546214 -241.386128 
L 927.306863 -240.639419 
L 924.067512 -239.89271 
L 920.828161 -239.146001 
L 917.58881 -238.399292 
L 914.349459 -237.652582 
L 911.110108 -236.905873 
L 907.870757 -236.159164 
L 904.631406 -235.412455 
L 901.392055 -234.665745 
L 898.152704 -233.919036 
L 894.913353 -233.172327 
L 891.674002 -232.425618 
L 888.434651 -231.678909 
L 885.1953 -230.932199 
L 881.95595 -230.18549 
L 878.716599 -229.438781 
L 875.477248 -228.692072 
L 872.237897 -227.945363 
L 868.998546 -227.198653 
L 865.759195 -226.451944 
L 862.519844 -225.705235 
L 859.280493 -224.958526 
L 856.041142 -224.211816 
L 852.801791 -223.465107 
L 849.56244 -222.718398 
L 846.323089 -221.971689 
L 843.083738 -221.22498 
L 839.844387 -220.47827 
L 836.605036 -219.731561 
L 833.365685 -218.984852 
L 830.126334 -218.238143 
L 826.886983 -217.491433 
L 823.647632 -216.744724 
L 820.408281 -215.998015 
L 817.16893 -215.251306 
L 813.929579 -214.504597 
L 810.690228 -213.757887 
L 807.450877 -213.011178 
L 804.211526 -212.264469 
L 800.972175 -211.51776 
L 797.732825 -210.771051 
L 794.493474 -210.024341 
L 791.254123 -209.277632 
L 788.014772 -208.530923 
L 784.775421 -207.784214 
L 781.53607 -207.037504 
L 778.296719 -206.290795 
L 775.057368 -205.544086 
L 771.818017 -204.797377 
L 768.578666 -204.050668 
L 765.339315 -203.303958 
L 762.099964 -202.557249 
L 758.860613 -201.81054 
L 755.621262 -201.063831 
L 752.381911 -200.317122 
L 749.14256 -199.570412 
L 745.903209 -198.823703 
L 742.663858 -198.076994 
L 739.424507 -197.330285 
L 736.185156 -196.583575 
L 732.945805 -195.836866 
L 729.706454 -195.090157 
L 726.467103 -194.343448 
L 723.227752 -193.596739 
L 719.988401 -192.850029 
L 716.74905 -192.10332 
L 713.5097 -191.356611 
L 710.270349 -190.609902 
L 707.030998 -189.863193 
L 703.791647 -189.116483 
L 700.552296 -188.369774 
L 697.312945 -187.623065 
L 694.073594 -186.876356 
L 690.834243 -186.129646 
L 687.594892 -185.382937 
L 684.355541 -184.636228 
L 681.11619 -183.889519 
L 677.876839 -183.14281 
L 674.637488 -182.3961 
L 671.398137 -181.649391 
L 668.158786 -180.902682 
L 664.919435 -180.155973 
L 661.680084 -179.409264 
L 658.440733 -178.662554 
L 655.201382 -177.915845 
L 651.962031 -177.169136 
L 648.72268 -176.422427 
L 645.483329 -175.675717 
L 642.243978 -174.929008 
L 639.004627 -174.182299 
L 635.765276 -173.43559 
L 632.525925 -172.688881 
L 629.286575 -171.942171 
L 626.047224 -171.195462 
L 622.807873 -170.448753 
L 619.568522 -169.702044 
L 616.329171 -168.955334 
L 613.08982 -168.208625 
L 609.850469 -167.461916 
L 606.611118 -166.715207 
L 603.371767 -165.968498 
L 600.132416 -165.221788 
L 596.893065 -164.475079 
L 593.653714 -163.72837 
L 590.414363 -162.981661 
L 587.175012 -162.234952 
L 583.935661 -161.488242 
L 580.69631 -160.741533 
L 577.456959 -159.994824 
L 574.217608 -159.248115 
L 570.978257 -158.501405 
L 567.738906 -157.754696 
L 564.499555 -157.007987 
L 561.260204 -156.261278 
L 558.020853 -155.514569 
L 554.781502 -154.767859 
L 551.542151 -154.02115 
L 548.3028 -153.274441 
L 545.06345 -152.527732 
L 541.824099 -151.781023 
L 538.584748 -151.034313 
L 535.345397 -150.287604 
L 532.106046 -149.540895 
L 528.866695 -148.794186 
L 525.627344 -148.047476 
L 522.387993 -147.300767 
L 519.148642 -146.554058 
L 515.909291 -145.807349 
L 512.66994 -145.06064 
L 509.430589 -144.31393 
L 506.191238 -143.567221 
L 502.951887 -142.820512 
L 499.712536 -142.073803 
L 496.473185 -141.327094 
L 493.233834 -140.580384 
L 489.994483 -139.833675 
L 486.755132 -139.086966 
L 483.515781 -138.340257 
L 480.27643 -137.593547 
L 477.037079 -136.846838 
L 473.797728 -136.100129 
L 470.558377 -135.35342 
L 467.319026 -134.606711 
L 464.079675 -133.860001 
L 460.840325 -133.113292 
L 457.600974 -132.366583 
L 454.361623 -131.619874 
L 451.122272 -130.873165 
L 447.882921 -130.126455 
L 444.64357 -129.379746 
L 441.404219 -128.633037 
L 438.164868 -127.886328 
L 434.925517 -127.139618 
L 431.686166 -126.392909 
L 428.446815 -125.6462 
L 425.207464 -124.899491 
L 421.968113 -124.152782 
L 418.728762 -123.406072 
L 415.489411 -122.659363 
L 412.25006 -121.912654 
L 409.010709 -121.165945 
L 405.771358 -120.419235 
L 402.532007 -119.672526 
L 399.292656 -118.925817 
L 396.053305 -118.179108 
L 392.813954 -117.432399 
L 389.574603 -116.685689 
L 386.335252 -115.93898 
L 383.095901 -115.192271 
L 379.85655 -114.445562 
L 376.6172 -113.698853 
L 373.377849 -112.952143 
L 370.138498 -112.205434 
L 366.899147 -111.458725 
L 363.659796 -110.712016 
L 360.420445 -109.965306 
L 357.181094 -109.218597 
L 353.941743 -108.471888 
L 350.702392 -107.725179 
L 347.463041 -106.97847 
L 344.22369 -106.23176 
L 340.984339 -105.485051 
L 337.744988 -104.738342 
L 334.505637 -103.991633 
L 331.266286 -103.244924 
L 328.026935 -102.498214 
L 324.787584 -101.751505 
L 321.548233 -101.004796 
L 318.308882 -100.258087 
L 315.069531 -99.511377 
L 311.83018 -98.764668 
L 308.590829 -98.017959 
L 305.351478 -97.27125 
L 302.112127 -96.524541 
L 298.872776 -95.777831 
L 295.633425 -95.031122 
L 292.394075 -94.284413 
L 289.154724 -93.537704 
L 285.915373 -92.790995 
L 282.676022 -92.044285 
L 279.436671 -91.297576 
L 276.19732 -90.550867 
L 272.957969 -89.804158 
L 269.718618 -89.057448 
L 266.479267 -88.310739 
L 263.239916 -87.56403 
L 260.000565 -86.817321 
L 256.761214 -86.070612 
L 253.521863 -85.323902 
L 250.282512 -84.577193 
L 247.043161 -83.830484 
L 243.80381 -83.083775 
L 240.564459 -82.337065 
L 237.325108 -81.590356 
L 234.085757 -80.843647 
L 230.846406 -80.096938 
L 227.607055 -79.350229 
L 224.367704 -78.603519 
L 221.128353 -77.85681 
L 217.889002 -77.110101 
L 214.649651 -76.363392 
L 211.4103 -75.616683 
L 208.17095 -74.869973 
L 204.931599 -74.123264 
L 201.692248 -73.376555 
L 198.452897 -72.629846 
L 195.213546 -71.883136 
L 191.974195 -71.136427 
L 188.734844 -70.389718 
L 185.495493 -69.643009 
L 182.256142 -68.8963 
L 179.016791 -68.14959 
L 175.77744 -67.402881 
L 172.538089 -66.656172 
L 169.298738 -65.909463 
L 166.059387 -65.162754 
L 162.820036 -64.416044 
L 159.580685 -63.669335 
L 156.341334 -62.922626 
L 153.101983 -62.175917 
L 149.862632 -61.429207 
L 146.623281 -60.682498 
L 143.38393 -59.935789 
L 140.144579 -59.18908 
L 136.905228 -58.442371 
L 133.665877 -57.695661 
L 130.426526 -56.948952 
L 127.187175 -56.202243 
L 123.947825 -55.455534 
L 120.708474 -54.708825 
L 117.469123 -53.962115 
L 114.229772 -53.215406 
L 110.990421 -52.468697 
L 107.75107 -51.721988 
L 104.511719 -50.975278 
L 101.272368 -50.228569 
L 98.033017 -49.48186 
L 94.793666 -48.735151 
L 91.554315 -47.988442 
L 88.314964 -47.241732 
L 85.075613 -46.495023 
L 81.836262 -45.748314 
L 78.596911 -45.001605 
L 75.35756 -44.254896 
L 72.118209 -43.508186 
L 68.878858 -42.761477 
L 65.639507 -42.014768 
L 62.400156 -41.268059 
z
" style="stroke: #4a4a4a; stroke-opacity: 0.08"/>
    </defs>
    <g clip-path="url(#p32db65c3d4)">
     <use xlink:href="#m31f78bbce7" x="0" y="348.633281" style="fill: #4a4a4a; fill-opacity: 0.08; stroke: #4a4a4a; stroke-opacity: 0.08"/>
    </g>
   </g>
   <g id="line2d_21">
    <path d="M 62.400156 307.489674 
L 1241.523906 80.987879 
L 1241.523906 80.987879 
" clip-path="url(#p32db65c3d4)" style="fill: none; stroke: #4a4a4a; stroke-opacity: 0.5; stroke-width: 2; stroke-linecap: round"/>
   </g>
   <g id="line2d_22">
    <path d="M 62.400156 308.111932 
L 68.878858 308.111932 
L 75.35756 307.602812 
L 78.596911 307.602812 
L 81.836262 307.395393 
L 85.075613 306.867416 
L 88.314964 306.69771 
L 94.793666 306.69771 
L 98.033017 306.396009 
L 117.469123 306.396009 
L 120.708474 305.038356 
L 143.38393 305.038356 
L 146.623281 304.133254 
L 153.101983 304.038972 
L 156.341334 303.247008 
L 159.580685 303.228152 
L 162.820036 302.096774 
L 166.059387 302.096774 
L 169.298738 300.098007 
L 172.538089 298.947773 
L 179.016791 293.781149 
L 182.256142 290.933849 
L 185.495493 286.257488 
L 188.734844 285.371242 
L 191.974195 283.466756 
L 1241.523906 283.466756 
L 1241.523906 283.466756 
" clip-path="url(#p32db65c3d4)" style="fill: none; stroke: #008ddf; stroke-width: 2; stroke-linecap: round"/>
   </g>
   <g id="patch_3">
    <path d="M 62.400156 321.739375 
L 62.400156 21.935625 
" style="fill: none; stroke: #cccccc; stroke-width: 1.25; stroke-linejoin: miter; stroke-linecap: square"/>
   </g>
   <g id="patch_4">
    <path d="M 1241.523906 321.739375 
L 1241.523906 21.935625 
" style="fill: none; stroke: #cccccc; stroke-width: 1.25; stroke-linejoin: miter; stroke-linecap: square"/>
   </g>
   <g id="patch_5">
    <path d="M 62.400156 321.739375 
L 1241.523906 321.739375 
" style="fill: none; stroke: #cccccc; stroke-width: 1.25; stroke-linejoin: miter; stroke-linecap: square"/>
   </g>
   <g id="patch_6">
    <path d="M 62.400156 21.935625 
L 1241.523906 21.935625 
" style="fill: none; stroke: #cccccc; stroke-width: 1.25; stroke-linejoin: miter; stroke-linecap: square"/>
   </g>
   <g id="text_22">
    <!-- Cumulative Reading vs. Goal (2026) -->
    <g style="fill: #262626" transform="translate(555.253281 15.935625) scale(0.12 -0.12)">
     <defs>
      <path id="ArialMT-43" d="M 3763 1606 
L 4369 1453 
Q 4178 706 3683 314 
Q 3188 -78 2472 -78 
Q 1731 -78 1267 223 
Q 803 525 561 1097 
Q 319 1669 319 2325 
Q 319 3041 592 3573 
Q 866 4106 1370 4382 
Q 1875 4659 2481 4659 
Q 3169 4659 3637 4309 
Q 4106 3959 4291 3325 
L 3694 3184 
Q 3534 3684 3231 3912 
Q 2928 4141 2469 4141 
Q 1941 4141 1586 3887 
Q 1231 3634 1087 3207 
Q 944 2781 944 2328 
Q 944 1744 1114 1308 
Q 1284 872 1643 656 
Q 2003 441 2422 441 
Q 2931 441 3284 734 
Q 3638 1028 3763 1606 
z
" transform="scale(0.015625)"/>
      <path id="ArialMT-6d" d="M 422 0 
L 422 3319 
L 925 3319 
L 925 2853 
Q 1081 3097 1340 3245 
Q 1600 3394 1931 3394 
Q 2300 3394 2536 3241 
Q 2772 3088 2869 2813 
Q 3263 3394 3894 3394 
Q 4388 3394 4653 3120 
Q 4919 2847 4919 2278 
L 4919 0 
L 4359 0 
L 4359 2091 
Q 4359 2428 4304 2576 
Q 4250 2725 4106 2815 
Q 3963 2906 3769 2906 
Q 3419 2906 3187 2673 
Q 2956 2441 2956 1928 
L 2956 0 
L 2394 0 
L 2394 2156 
Q 2394 2531 2256 2718 
Q 2119 2906 1806 2906 
Q 1569 2906 1367 2781 
Q 1166 2656 1075 2415 
Q 984 2175 984 1722 
L 984 0 
L 422 0 
z
" transform="scale(0.015625)"/>
      <path id="ArialMT-69" d="M 425 3934 
L 425 4581 
L 988 4581 
L 988 3934 
L 425 3934 
z
M 425 0 
L 425 3319 
L 988 3319 
L 988 0 
L 425 0 
z
" transform="scale(0.015625)"/>
      <path id="ArialMT-2e" d="M 581 0 
L 581 641 
L 1222 641 
L 1222 0 
L 581 0 
z
" transform="scale(0.015625)"/>
      <path id="ArialMT-47" d="M 2638 1797 
L 2638 2334 
L 4578 2338 
L 4578 638 
Q 4131 281 3656 101 
Q 3181 -78 2681 -78 
Q 2006 -78 1454 211 
Q 903 500 622 1047 
Q 341 1594 341 2269 
Q 341 2938 620 3517 
Q 900 4097 1425 4378 
Q 1950 4659 2634 4659 
Q 3131 4659 3532 4498 
Q 3934 4338 4162 4050 
Q 4391 3763 4509 3300 
L 3963 3150 
Q 3859 3500 3706 3700 
Q 3553 3900 3268 4020 
Q 2984 4141 2638 4141 
Q 2222 4141 1919 4014 
Q 1616 3888 1430 3681 
Q 1244 3475 1141 3228 
Q 966 2803 966 2306 
Q 966 1694 1177 1281 
Q 1388 869 1791 669 
Q 2194 469 2647 469 
Q 3041 469 3416 620 
Q 3791 772 3984 944 
L 3984 1797 
L 2638 1797 
z
" transform="scale(0.015625)"/>
      <path id="ArialMT-28" d="M 1497 -1347 
Q 1031 -759 709 28 
Q 388 816 388 1659 
Q 388 2403 628 3084 
Q 909 3875 1497 4659 
L 1900 4659 
Q 1522 4009 1400 3731 
Q 1209 3300 1100 2831 
Q 966 2247 966 1656 
Q 966 153 1900 -1347 
L 1497 -1347 
z
" transform="scale(0.015625)"/>
      <path id="ArialMT-29" d="M 791 -1347 
L 388 -1347 
Q 1322 153 1322 1656 
Q 1322 2244 1188 2822 
Q 1081 3291 891 3722 
Q 769 4003 388 4659 
L 791 4659 
Q 1378 3875 1659 3084 
Q 1900 2403 1900 1659 
Q 1900 816 1576 28 
Q 1253 -759 791 -1347 
z
" transform="scale(0.015625)"/>
     </defs>
     <use xlink:href="#ArialMT-43"/>
     <use xlink:href="#ArialMT-75" x="72.216797"/>
     <use xlink:href="#ArialMT-6d" x="127.832031"/>
     <use xlink:href="#ArialMT-75" x="211.132812"/>
     <use xlink:href="#ArialMT-6c" x="266.748047"/>
     <use xlink:href="#ArialMT-61" x="288.964844"/>
     <use xlink:href="#ArialMT-74" x="344.580078"/>
     <use xlink:href="#ArialMT-69" x="372.363281"/>
     <use xlink:href="#ArialMT-76" x="394.580078"/>
     <use xlink:href="#ArialMT-65" x="444.580078"/>
     <use xlink:href="#ArialMT-20" x="500.195312"/>
     <use xlink:href="#ArialMT-52" x="527.978516"/>
     <use xlink:href="#ArialMT-65" x="600.195312"/>
     <use xlink:href="#ArialMT-61" x="655.810547"/>
     <use xlink:href="#ArialMT-64" x="711.425781"/>
     <use xlink:href="#ArialMT-69" x="767.041016"/>
     <use xlink:href="#ArialMT-6e" x="789.257812"/>
     <use xlink:href="#ArialMT-67" x="844.873047"/>
     <use xlink:href="#ArialMT-20" x="900.488281"/>
     <use xlink:href="#ArialMT-76" x="928.271484"/>
     <use xlink:href="#ArialMT-73" x="978.271484"/>
     <use xlink:href="#ArialMT-2e" x="1028.271484"/>
     <use xlink:href="#ArialMT-20" x="1056.054688"/>
     <use xlink:href="#ArialMT-47" x="1083.837891"/>
     <use xlink:href="#ArialMT-6f" x="1161.621094"/>
     <use xlink:href="#ArialMT-61" x="1217.236328"/>
     <use xlink:href="#ArialMT-6c" x="1272.851562"/>
     <use xlink:href="#ArialMT-20" x="1295.068359"/>
     <use xlink:href="#ArialMT-28" x="1322.851562"/>
     <use xlink:href="#ArialMT-32" x="1356.152344"/>
     <use xlink:href="#ArialMT-30" x="1411.767578"/>
     <use xlink:href="#ArialMT-32" x="1467.382812"/>
     <use xlink:href="#ArialMT-36" x="1522.998047"/>
     <use xlink:href="#ArialMT-29" x="1578.613281"/>
    </g>
   </g>
   <g id="legend_1">
    <g id="line2d_23">
     <path d="M 72.300156 35.993281 
L 83.300156 35.993281 
L 94.300156 35.993281 
" style="fill: none; stroke: #4a4a4a; stroke-opacity: 0.5; stroke-width: 2; stroke-linecap: round"/>
    </g>
    <g id="text_23">
     <!-- Goal (c_) -->
     <g style="fill: #262626" transform="translate(103.100156 39.843281) scale(0.11 -0.11)">
      <defs>
       <path id="ArialMT-5f" d="M -97 -1272 
L -97 -866 
L 3631 -866 
L 3631 -1272 
L -97 -1272 
z
" transform="scale(0.015625)"/>
      </defs>
      <use xlink:href="#ArialMT-47"/>
      <use xlink:href="#ArialMT-6f" x="77.783203"/>
      <use xlink:href="#ArialMT-61" x="133.398438"/>
      <use xlink:href="#ArialMT-6c" x="189.013672"/>
      <use xlink:href="#ArialMT-20" x="211.230469"/>
      <use xlink:href="#ArialMT-28" x="239.013672"/>
      <use xlink:href="#ArialMT-63" x="272.314453"/>
      <use xlink:href="#ArialMT-5f" x="322.314453"/>
      <use xlink:href="#ArialMT-29" x="377.929688"/>
     </g>
    </g>
    <g id="patch_7">
     <path d="M 72.300156 55.532031 
L 94.300156 55.532031 
L 94.300156 47.832031 
L 72.300156 47.832031 
z
" style="fill: #4a4a4a; fill-opacity: 0.15; stroke: #4a4a4a; stroke-opacity: 0.15; stroke-linejoin: miter"/>
    </g>
    <g id="text_24">
     <!-- Good -->
     <g style="fill: #262626" transform="translate(103.100156 55.532031) scale(0.11 -0.11)">
      <use xlink:href="#ArialMT-47"/>
      <use xlink:href="#ArialMT-6f" x="77.783203"/>
      <use xlink:href="#ArialMT-6f" x="133.398438"/>
      <use xlink:href="#ArialMT-64" x="189.013672"/>
     </g>
    </g>
    <g id="patch_8">
     <path d="M 72.300156 71.091875 
L 94.300156 71.091875 
L 94.300156 63.391875 
L 72.300156 63.391875 
z
" style="fill: #4a4a4a; fill-opacity: 0.08; stroke: #4a4a4a; stroke-opacity: 0.08; stroke-linejoin: miter"/>
    </g>
    <g id="text_25">
     <!-- Great -->
     <g style="fill: #262626" transform="translate(103.100156 71.091875) scale(0.11 -0.11)">
      <use xlink:href="#ArialMT-47"/>
      <use xlink:href="#ArialMT-72" x="77.783203"/>
      <use xlink:href="#ArialMT-65" x="111.083984"/>
      <use xlink:href="#ArialMT-61" x="166.699219"/>
      <use xlink:href="#ArialMT-74" x="222.314453"/>
     </g>
    </g>
    <g id="line2d_24">
     <path d="M 72.300156 82.935781 
L 83.300156 82.935781 
L 94.300156 82.935781 
" style="fill: none; stroke: #008ddf; stroke-width: 2; stroke-linecap: round"/>
    </g>
    <g id="text_26">
     <!-- Reading (c_) -->
     <g style="fill: #262626" transform="translate(103.100156 86.785781) scale(0.11 -0.11)">
      <use xlink:href="#ArialMT-52"/>
      <use xlink:href="#ArialMT-65" x="72.216797"/>
      <use xlink:href="#ArialMT-61" x="127.832031"/>
      <use xlink:href="#ArialMT-64" x="183.447266"/>
      <use xlink:href="#ArialMT-69" x="239.0625"/>
      <use xlink:href="#ArialMT-6e" x="261.279297"/>
      <use xlink:href="#ArialMT-67" x="316.894531"/>
      <use xlink:href="#ArialMT-20" x="372.509766"/>
      <use xlink:href="#ArialMT-28" x="400.292969"/>
      <use xlink:href="#ArialMT-63" x="433.59375"/>
      <use xlink:href="#ArialMT-5f" x="483.59375"/>
      <use xlink:href="#ArialMT-29" x="539.208984"/>
     </g>
    </g>
   </g>
  </g>
 </g>
 <defs>
  <clipPath id="p32db65c3d4">
   <rect x="62.400156" y="21.935625" width="1179.12375" height="299.80375"/>
  </clipPath>
 </defs>
</svg>
